<svg width="88" height="40" viewBox="0 0 88 40" fill="none" xmlns="http://www.w3.org/2000/svg">
<path d="M13.2697 0.453576H17.1757V39.0176H12.5257L4.52767 9.13358V39.0176H0.62167V0.453576H5.58167L13.2697 29.2836V0.453576ZM24.8608 0.453576H31.1848C34.4501 0.453576 36.0828 2.08624 36.0828 5.35158V34.1196C36.0828 37.3849 34.4501 39.0176 31.1848 39.0176H24.8608C21.5954 39.0176 19.9628 37.3849 19.9628 34.1196V5.35158C19.9628 2.08624 21.5954 0.453576 24.8608 0.453576ZM31.8668 33.4376V6.03358C31.8668 5.20691 31.7428 4.69024 31.4948 4.48358C31.2468 4.23558 30.7301 4.11158 29.9448 4.11158H26.1008C25.3154 4.11158 24.7988 4.23558 24.5508 4.48358C24.3028 4.69024 24.1788 5.20691 24.1788 6.03358V33.4376C24.1788 34.2642 24.3028 34.8016 24.5508 35.0496C24.7988 35.2562 25.3154 35.3596 26.1008 35.3596H29.9448C30.7301 35.3596 31.2468 35.2562 31.4948 35.0496C31.7428 34.8016 31.8668 34.2642 31.8668 33.4376ZM43.1106 22.8976V39.0176H38.8946V0.453576H50.1166C53.3819 0.453576 55.0146 2.08624 55.0146 5.35158V17.9996C55.0146 20.9342 53.7332 22.5462 51.1706 22.8356L56.9986 39.0176H52.4106L46.7686 22.8976H43.1106ZM43.1106 4.11158V19.2396H48.8766C49.7032 19.2396 50.2199 19.1362 50.4266 18.9296C50.6746 18.6816 50.7986 18.1442 50.7986 17.3176V6.03358C50.7986 5.20691 50.6746 4.69024 50.4266 4.48358C50.2199 4.23558 49.7032 4.11158 48.8766 4.11158H43.1106ZM71.2745 0.453576V4.11158H65.0745V39.0176H60.8585V4.11158H54.6585V0.453576H71.2745ZM75.8824 0.453576H82.2064C85.4717 0.453576 87.1044 2.08624 87.1044 5.35158V34.1196C87.1044 37.3849 85.4717 39.0176 82.2064 39.0176H75.8824C72.6171 39.0176 70.9844 37.3849 70.9844 34.1196V5.35158C70.9844 2.08624 72.6171 0.453576 75.8824 0.453576ZM82.8884 33.4376V6.03358C82.8884 5.20691 82.7644 4.69024 82.5164 4.48358C82.2684 4.23558 81.7517 4.11158 80.9664 4.11158H77.1224C76.3371 4.11158 75.8204 4.23558 75.5724 4.48358C75.3244 4.69024 75.2004 5.20691 75.2004 6.03358V33.4376C75.2004 34.2642 75.3244 34.8016 75.5724 35.0496C75.8204 35.2562 76.3371 35.3596 77.1224 35.3596H80.9664C81.7517 35.3596 82.2684 35.2562 82.5164 35.0496C82.7644 34.8016 82.8884 34.2642 82.8884 33.4376Z" fill="#030211"/>
</svg>
