<svg width="175" height="53" viewBox="0 0 175 53" fill="none" xmlns="http://www.w3.org/2000/svg">
<path d="M1.31213 15.0293C1.31213 13.3757 1.77437 11.9889 2.69885 10.8691C3.62333 9.74935 4.83427 9.18945 6.33167 9.18945C7.84208 9.18945 9.05302 9.75586 9.96448 10.8887C10.889 12.0085 11.3512 13.3887 11.3512 15.0293C11.3512 16.6569 10.889 18.0371 9.96448 19.1699C9.05302 20.2897 7.84208 20.8496 6.33167 20.8496C4.83427 20.8496 3.62333 20.2897 2.69885 19.1699C1.77437 18.0501 1.31213 16.6699 1.31213 15.0293ZM2.36682 15.0098C2.36682 16.2858 2.71838 17.4186 3.42151 18.4082C4.13765 19.3848 5.10771 19.873 6.33167 19.873C7.55562 19.873 8.51917 19.3913 9.22229 18.4277C9.93844 17.4512 10.2965 16.3118 10.2965 15.0098C10.2965 13.6947 9.93844 12.5618 9.22229 11.6113C8.50614 10.6478 7.5426 10.166 6.33167 10.166C5.08167 10.166 4.1051 10.6608 3.40198 11.6504C2.71187 12.627 2.36682 13.7467 2.36682 15.0098ZM23.9598 9.52148H28.3348V10.4395H26.3426V15.9473C26.3426 17.1322 26.4663 17.9785 26.7137 18.4863C27.1564 19.4108 28.0288 19.873 29.3309 19.873C30.685 19.873 31.5705 19.4629 31.9871 18.6426C32.2475 18.1738 32.3778 17.3405 32.3778 16.1426V10.4395H30.3856V9.52148H34.7606V10.4395H33.3543V16.1426C33.3543 17.679 33.1199 18.7728 32.6512 19.4238C32.3908 19.7884 31.9741 20.1204 31.4012 20.4199C30.8283 20.7064 30.1447 20.8496 29.3504 20.8496C27.853 20.8496 26.7462 20.3418 26.0301 19.3262C25.5874 18.6882 25.366 17.5618 25.366 15.9473V10.4395H23.9598V9.52148ZM47.6817 9.52148H57.0567L57.3887 14.1309L56.4512 14.248L56.1778 10.4395H52.8574V19.5996H55.2207V20.5176H49.5176V19.5996H51.8809V10.4395H48.5606L48.2871 14.248L47.3496 14.1309L47.6817 9.52148ZM70.3684 15.0293C70.3684 13.3757 70.8306 11.9889 71.7551 10.8691C72.6796 9.74935 73.8905 9.18945 75.3879 9.18945C76.8983 9.18945 78.1093 9.75586 79.0207 10.8887C79.9452 12.0085 80.4074 13.3887 80.4074 15.0293C80.4074 16.6569 79.9452 18.0371 79.0207 19.1699C78.1093 20.2897 76.8983 20.8496 75.3879 20.8496C73.8905 20.8496 72.6796 20.2897 71.7551 19.1699C70.8306 18.0501 70.3684 16.6699 70.3684 15.0293ZM71.4231 15.0098C71.4231 16.2858 71.7746 17.4186 72.4778 18.4082C73.1939 19.3848 74.164 19.873 75.3879 19.873C76.6119 19.873 77.5754 19.3913 78.2785 18.4277C78.9947 17.4512 79.3528 16.3118 79.3528 15.0098C79.3528 13.6947 78.9947 12.5618 78.2785 11.6113C77.5624 10.6478 76.5989 10.166 75.3879 10.166C74.1379 10.166 73.1614 10.6608 72.4582 11.6504C71.7681 12.627 71.4231 13.7467 71.4231 15.0098ZM93.9535 9.52148H103.114L103.211 13.0371H102.332L102.098 10.4395H96.5121V14.248H99.6762V12.8223H100.575V16.5723H99.6762V15.166H96.5121V19.5996H99.0512V20.5176H93.9535V19.5996H95.5356V10.4395H93.9535V9.52148ZM116.738 9.52148H126.113L126.445 14.1309L125.507 14.248L125.234 10.4395H121.914V19.5996H124.277V20.5176H118.574V19.5996H120.937V10.4395H117.617L117.343 14.248L116.406 14.1309L116.738 9.52148ZM139.347 9.52148H143.253V10.4395H141.788V14.3848H147.1V10.4395H145.636V9.52148H149.561V10.4395H148.077V19.5996H149.561V20.5176H145.636V19.5996H147.1V15.3027H141.788V19.5996H143.253V20.5176H139.347V19.5996H140.811V10.4395H139.347V9.52148ZM162.717 9.52148H171.994L172.072 13.1152H171.174L170.979 10.4395H165.354V14.248H168.518V12.8223H169.416V16.5723H168.518V15.166H165.354V19.5996H171.174L171.272 16.9238H172.17V20.5176H162.717V19.5996H164.377V10.4395H162.717V9.52148ZM9.49573 35.3066H10.3746C10.2574 35.8145 10.1989 36.2832 10.1989 36.7129C10.1989 37.3118 10.2574 38.0866 10.3746 39.0371L9.49573 39.1934C9.39156 38.4251 9.18974 37.8132 8.89026 37.3574C8.36943 36.5632 7.5426 36.166 6.40979 36.166C5.47229 36.166 4.74312 36.4069 4.22229 36.8887C3.71448 37.3704 3.46057 37.8978 3.46057 38.4707C3.46057 38.8874 3.55823 39.2389 3.75354 39.5254C3.96187 39.8118 4.24833 40.0267 4.61292 40.1699C4.99052 40.3001 5.29651 40.3913 5.53088 40.4434C5.76526 40.4824 6.06474 40.5215 6.42932 40.5605C7.24963 40.6517 7.84859 40.7428 8.2262 40.834C8.61682 40.9121 8.96838 41.0553 9.28088 41.2637C10.0882 41.8105 10.4918 42.5658 10.4918 43.5293C10.4918 44.584 10.0882 45.4043 9.28088 45.9902C8.47359 46.5632 7.5426 46.8496 6.48792 46.8496C5.42021 46.8496 4.52828 46.5501 3.81213 45.9512C3.76005 45.8991 3.70797 45.873 3.65588 45.873C3.59078 45.873 3.52568 45.9251 3.46057 46.0293C3.40849 46.1855 3.34989 46.4785 3.28479 46.9082H2.40588C2.52307 46.3483 2.58167 45.7689 2.58167 45.1699C2.58167 44.8835 2.52307 44.1934 2.40588 43.0996H3.28479C3.44104 43.8809 3.66239 44.4603 3.94885 44.8379C4.46969 45.528 5.27047 45.873 6.3512 45.873C7.43193 45.873 8.21318 45.6452 8.69495 45.1895C9.18974 44.7337 9.43713 44.2064 9.43713 43.6074C9.43713 43.2819 9.37203 43.002 9.24182 42.7676C9.11161 42.5202 8.95536 42.3314 8.77307 42.2012C8.6038 42.0579 8.37594 41.9408 8.08948 41.8496C7.81604 41.7585 7.58818 41.6999 7.40588 41.6738C7.22359 41.6478 6.99573 41.6217 6.72229 41.5957C6.27958 41.5566 5.92151 41.5176 5.64807 41.4785C5.38765 41.4395 5.02307 41.3483 4.55432 41.2051C4.09859 41.0618 3.73401 40.8926 3.46057 40.6973C3.18713 40.502 2.93974 40.222 2.71838 39.8574C2.51005 39.4798 2.40588 39.0436 2.40588 38.5488C2.40588 37.6374 2.77698 36.8496 3.51917 36.1855C4.27437 35.5215 5.19885 35.1895 6.2926 35.1895C7.2301 35.1895 8.03739 35.4564 8.71448 35.9902C8.96187 36.1725 9.11161 36.2637 9.1637 36.2637C9.24182 36.2637 9.2939 36.2311 9.31995 36.166C9.34599 36.1009 9.39156 35.8991 9.45667 35.5605C9.48271 35.4564 9.49573 35.3717 9.49573 35.3066ZM25.6981 35.5215H29.8973L34.0184 45.5996H35.0145V46.5176H31.0106V45.5996H33.0028L31.8895 42.8848H26.7918L25.6981 45.5996H27.6903V46.5176H23.6864V45.5996H24.7215L28.491 36.4395H25.6981V35.5215ZM31.5574 42.0254L29.3504 36.6738L27.1434 42.0254H31.5574ZM47.0567 35.5215H50.3965L55.5332 45.6973H55.8848V36.4395H53.6973V35.5215H58.0528V36.4395H56.7832V46.7715H55.0449L49.8106 36.4395H49.4785V45.5996H51.6856V46.5176H47.0567V45.5996H48.5801V36.4395H47.0567V35.5215ZM70.1926 35.5215H75.0754C76.052 35.5215 76.8397 35.6126 77.4387 35.7949C78.0377 35.9772 78.5845 36.3743 79.0793 36.9863C79.8866 37.9889 80.2903 39.265 80.2903 40.8145C80.2903 42.8327 79.7499 44.3561 78.6692 45.3848C77.8749 46.14 76.6509 46.5176 74.9973 46.5176H70.1926V45.5996H71.7356V36.4395H70.1926V35.5215ZM75.0949 36.4395H72.7121V45.5996H74.9973C76.3254 45.5996 77.302 45.2936 77.927 44.6816C78.7994 43.8092 79.2356 42.5397 79.2356 40.873C79.2356 39.61 78.9296 38.5553 78.3176 37.709C77.94 37.1751 77.5168 36.8301 77.0481 36.6738C76.5793 36.5176 75.9283 36.4395 75.0949 36.4395ZM117.168 35.5215H122.5C123.763 35.5215 124.7 35.7949 125.312 36.3418C125.924 36.8887 126.23 37.5592 126.23 38.3535C126.23 39.4342 125.716 40.2415 124.687 40.7754C126.172 41.2181 126.914 42.1296 126.914 43.5098C126.914 44.0436 126.783 44.5319 126.523 44.9746C126.276 45.4173 125.944 45.7493 125.527 45.9707C125.11 46.1921 124.694 46.3418 124.277 46.4199C123.86 46.485 123.209 46.5176 122.324 46.5176H117.168V45.5996H118.789V36.4395H117.168V35.5215ZM122.461 36.4395H119.765V40.3457H122.363C122.962 40.3457 123.47 40.2741 123.886 40.1309C124.303 39.9746 124.596 39.7793 124.765 39.5449C124.935 39.3105 125.052 39.0957 125.117 38.9004C125.182 38.7051 125.214 38.5098 125.214 38.3145C125.214 37.8848 125.097 37.5267 124.863 37.2402C124.642 36.9538 124.342 36.765 123.964 36.6738C123.587 36.5697 123.294 36.5046 123.086 36.4785C122.89 36.4525 122.682 36.4395 122.461 36.4395ZM122.207 41.2637H119.765V45.5996H122.285C122.61 45.5996 122.864 45.5996 123.047 45.5996C123.229 45.5866 123.483 45.5605 123.808 45.5215C124.147 45.4824 124.414 45.4238 124.609 45.3457C124.817 45.2546 125.032 45.1374 125.254 44.9941C125.475 44.8379 125.638 44.6361 125.742 44.3887C125.846 44.1413 125.898 43.8483 125.898 43.5098C125.898 42.7415 125.566 42.1751 124.902 41.8105C124.238 41.446 123.339 41.2637 122.207 41.2637ZM140.147 41.0293C140.147 39.3757 140.61 37.9889 141.534 36.8691C142.458 35.7493 143.669 35.1895 145.167 35.1895C146.677 35.1895 147.888 35.7559 148.8 36.8887C149.724 38.0085 150.186 39.3887 150.186 41.0293C150.186 42.6569 149.724 44.0371 148.8 45.1699C147.888 46.2897 146.677 46.8496 145.167 46.8496C143.669 46.8496 142.458 46.2897 141.534 45.1699C140.61 44.0501 140.147 42.6699 140.147 41.0293ZM141.202 41.0098C141.202 42.2858 141.554 43.4186 142.257 44.4082C142.973 45.3848 143.943 45.873 145.167 45.873C146.391 45.873 147.354 45.3913 148.057 44.4277C148.774 43.4512 149.132 42.3118 149.132 41.0098C149.132 39.6947 148.774 38.5618 148.057 37.6113C147.341 36.6478 146.378 36.166 145.167 36.166C143.917 36.166 142.94 36.6608 142.237 37.6504C141.547 38.627 141.202 39.7467 141.202 41.0098ZM163.342 35.5215H167.131V36.4395H165.529L168.205 40.0137L170.939 36.4395H169.455V35.5215H173.029V36.4395H172.033L168.752 40.7363L172.385 45.5996H173.4V46.5176H169.455V45.5996H171.213L168.205 41.459L165.061 45.5996H167.131V46.5176H162.971V45.5996H163.967L167.658 40.7363L164.377 36.4395H163.342V35.5215Z" fill="#030211"/>
<rect x="93.6978" y="35.7305" width="11.0043" height="9.03674" stroke="black"/>
<rect x="95.2191" y="37.2734" width="7.97269" height="5.96338" fill="#030211"/>
</svg>
