<svg width="189" height="48" viewBox="0 0 189 48" fill="none" xmlns="http://www.w3.org/2000/svg">
<path d="M5.50901 37.0176H15.549C17.3357 37.0176 18.8423 36.7909 20.069 36.3376C21.2957 35.8576 22.2823 35.2442 23.029 34.4976C23.7757 33.7509 24.309 32.9109 24.629 31.9776C24.9757 31.0176 25.149 30.0576 25.149 29.0976C25.149 27.5776 24.8157 26.3642 24.149 25.4576C23.509 24.5509 22.7357 23.8576 21.829 23.3776C20.9223 22.8976 19.989 22.5776 19.029 22.4176C18.069 22.2576 17.2957 22.1642 16.709 22.1376V21.9776C17.6423 21.9776 18.5223 21.8042 19.349 21.4576C20.1757 21.0842 20.8957 20.6176 21.509 20.0576C22.149 19.4709 22.6557 18.8042 23.029 18.0576C23.4023 17.2842 23.589 16.4709 23.589 15.6176C23.589 14.8709 23.429 14.1109 23.109 13.3376C22.789 12.5642 22.2957 11.8576 21.629 11.2176C20.989 10.5776 20.149 10.0576 19.109 9.65758C18.0957 9.23091 16.8957 9.01758 15.509 9.01758H5.50901V37.0176ZM9.14901 35.2576V23.0176H13.549C14.8557 23.0176 15.989 23.1909 16.949 23.5376C17.909 23.8842 18.6957 24.3509 19.309 24.9376C19.949 25.5242 20.4157 26.2042 20.709 26.9776C21.029 27.7509 21.189 28.5642 21.189 29.4176C21.189 30.3509 21.0157 31.1776 20.669 31.8976C20.349 32.6176 19.909 33.2309 19.349 33.7376C18.789 34.2442 18.1223 34.6309 17.349 34.8976C16.6023 35.1376 15.8023 35.2576 14.949 35.2576H9.14901ZM9.14901 21.2576V10.7776H14.029C15.069 10.7776 15.949 10.9242 16.669 11.2176C17.4157 11.5109 18.0157 11.8976 18.469 12.3776C18.949 12.8576 19.2957 13.4042 19.509 14.0176C19.7223 14.6309 19.829 15.2442 19.829 15.8576C19.829 16.6309 19.669 17.3509 19.349 18.0176C19.0557 18.6842 18.629 19.2576 18.069 19.7376C17.5357 20.2176 16.909 20.5909 16.189 20.8576C15.4957 21.1242 14.749 21.2576 13.949 21.2576H9.14901ZM54.5543 9.01758V37.0176H58.1943V24.6576H59.9543C60.701 24.6576 61.3143 24.7242 61.7943 24.8576C62.301 24.9909 62.7543 25.2176 63.1543 25.5376C63.5543 25.8576 63.9277 26.2709 64.2743 26.7776C64.621 27.2842 65.0343 27.9109 65.5143 28.6576L68.6743 33.3376C69.0743 33.9509 69.461 34.5109 69.8343 35.0176C70.2343 35.5242 70.661 35.9642 71.1143 36.3376C71.5677 36.6842 72.0743 36.9642 72.6343 37.1776C73.221 37.3909 73.9143 37.4976 74.7143 37.4976C75.301 37.4976 75.781 37.4709 76.1543 37.4176C76.5277 37.3642 76.901 37.2309 77.2743 37.0176V35.5376C77.141 35.5642 77.0077 35.5909 76.8743 35.6176C76.741 35.6176 76.6077 35.6176 76.4743 35.6176C75.9143 35.6176 75.421 35.5376 74.9943 35.3776C74.5677 35.2176 74.1677 34.9909 73.7943 34.6976C73.421 34.3776 73.061 34.0042 72.7143 33.5776C72.3677 33.1242 72.0077 32.6176 71.6343 32.0576C70.5143 30.4309 69.6477 29.1376 69.0343 28.1776C68.421 27.1909 67.9277 26.4309 67.5543 25.8976C67.2077 25.3642 66.9143 24.9776 66.6743 24.7376C66.461 24.4976 66.1943 24.2976 65.8743 24.1376L65.4743 23.9376V23.7776C66.7543 23.6976 67.8477 23.4176 68.7543 22.9376C69.6877 22.4576 70.4477 21.8576 71.0343 21.1376C71.621 20.4176 72.0477 19.6442 72.3143 18.8176C72.581 17.9642 72.7143 17.1376 72.7143 16.3376C72.7143 15.6176 72.5677 14.8309 72.2743 13.9776C72.0077 13.1242 71.5277 12.3376 70.8343 11.6176C70.1677 10.8709 69.2477 10.2576 68.0743 9.77758C66.901 9.27091 65.421 9.01758 63.6343 9.01758H54.5543ZM58.1943 10.7776H62.2343C63.2477 10.7776 64.1543 10.9242 64.9543 11.2176C65.781 11.5109 66.4877 11.9242 67.0743 12.4576C67.661 12.9642 68.101 13.5776 68.3943 14.2976C68.7143 15.0176 68.8743 15.8042 68.8743 16.6576C68.8743 17.3776 68.7277 18.1109 68.4343 18.8576C68.1677 19.5776 67.7543 20.2442 67.1943 20.8576C66.6343 21.4442 65.941 21.9242 65.1143 22.2976C64.3143 22.6709 63.381 22.8576 62.3143 22.8576H58.1943V10.7776ZM128.425 9.01758V30.4176H128.265L106.065 8.53758H105.865V37.0176H107.705V15.6176H107.865L130.065 37.4976H130.265V9.01758H128.425ZM162.85 37.0176V9.01758H172.05C174.263 9.01758 176.29 9.37758 178.13 10.0976C179.97 10.7909 181.543 11.7642 182.85 13.0176C184.183 14.2442 185.21 15.7109 185.93 17.4176C186.676 19.1242 187.05 20.9642 187.05 22.9376C187.05 24.9909 186.663 26.8842 185.89 28.6176C185.143 30.3242 184.103 31.8042 182.77 33.0576C181.463 34.3109 179.93 35.2842 178.17 35.9776C176.41 36.6709 174.53 37.0176 172.53 37.0176H162.85ZM166.49 35.2576H170.89C173.076 35.2576 174.93 34.8976 176.45 34.1776C177.996 33.4309 179.263 32.4709 180.25 31.2976C181.236 30.1242 181.956 28.8176 182.41 27.3776C182.863 25.9109 183.09 24.4576 183.09 23.0176C183.09 21.4176 182.823 19.8842 182.29 18.4176C181.756 16.9242 180.97 15.6176 179.93 14.4976C178.916 13.3509 177.65 12.4442 176.13 11.7776C174.61 11.1109 172.863 10.7776 170.89 10.7776H166.49V35.2576Z" fill="#030211"/>
</svg>
