<svg width="31" height="31" viewBox="0 0 31 31" fill="none" xmlns="http://www.w3.org/2000/svg">
<path d="M14.6215 1.01659C15.0218 0.501223 15.8006 0.501224 16.2009 1.01659L17.1892 2.28876C17.4996 2.68844 18.0598 2.79314 18.4937 2.53261L19.8747 1.70335C20.4342 1.36741 21.1604 1.64871 21.3475 2.27391L21.8095 3.81717C21.9546 4.30201 22.4391 4.60198 22.9378 4.51579L24.5252 4.24143C25.1682 4.13028 25.7437 4.6549 25.6924 5.30548L25.5657 6.91141C25.5258 7.41594 25.8692 7.87067 26.3654 7.97045L27.9447 8.28804C28.5845 8.4167 28.9316 9.11379 28.6487 9.70189L27.9504 11.1536C27.731 11.6097 27.887 12.1577 28.3136 12.43L29.6715 13.2967C30.2216 13.6478 30.2935 14.4232 29.8173 14.8694L28.6417 15.9708C28.2724 16.3168 28.2198 16.8842 28.5192 17.2922L29.4724 18.5909C29.8585 19.117 29.6454 19.866 29.0402 20.11L27.5461 20.7124C27.0767 20.9017 26.8227 21.4117 26.9546 21.9004L27.3742 23.4557C27.5442 24.0857 27.075 24.7072 26.4224 24.7161L24.8117 24.7381C24.3056 24.745 23.8845 25.1289 23.8309 25.6321L23.6604 27.234C23.5913 27.8829 22.9292 28.2929 22.3175 28.0655L20.8076 27.5041C20.3332 27.3277 19.8019 27.5336 19.5701 27.9835L18.8325 29.4156C18.5336 29.9957 17.7682 30.1388 17.2799 29.7058L16.0747 28.6369C15.6961 28.3011 15.1263 28.3011 14.7476 28.6369L13.5425 29.7058C13.0542 30.1388 12.2888 29.9957 11.9899 29.4156L11.2523 27.9835C11.0205 27.5336 10.4892 27.3277 10.0148 27.5041L8.50484 28.0655C7.89315 28.2929 7.23106 27.8829 7.16198 27.234L6.99146 25.6321C6.93789 25.1289 6.51678 24.745 6.01073 24.7381L4.39997 24.7161C3.74742 24.7072 3.27814 24.0857 3.44815 23.4557L3.8678 21.9004C3.99964 21.4117 3.74565 20.9017 3.27627 20.7124L1.78222 20.11C1.17696 19.866 0.963848 19.117 1.34998 18.5909L2.30314 17.2922C2.60259 16.8842 2.55001 16.3168 2.18069 15.9708L1.00513 14.8694C0.528901 14.4232 0.600754 13.6478 1.15087 13.2967L2.50879 12.43C2.93541 12.1577 3.09135 11.6097 2.87197 11.1536L2.17367 9.70189C1.89078 9.11379 2.23789 8.4167 2.87768 8.28804L4.45698 7.97045C4.95315 7.87067 5.29655 7.41594 5.25673 6.91141L5.13001 5.30548C5.07867 4.6549 5.65415 4.13028 6.29722 4.24143L7.8846 4.51579C8.38331 4.60198 8.86779 4.30201 9.01292 3.81717L9.47488 2.27391C9.66202 1.64871 10.3882 1.36741 10.9477 1.70335L12.3287 2.53261C12.7626 2.79314 13.3227 2.68844 13.6332 2.28876L14.6215 1.01659Z" fill="#030211"/>
<path d="M20.3338 15.066C20.4244 15.1574 20.4752 15.2809 20.4752 15.4096C20.4752 15.5383 20.4244 15.6617 20.3338 15.7532L15.9938 20.0932C15.9012 20.1817 15.7783 20.2313 15.6502 20.2319C15.5862 20.2316 15.5228 20.2193 15.4633 20.1957C15.3756 20.1588 15.3007 20.0968 15.2481 20.0174C15.1956 19.938 15.1677 19.8448 15.168 19.7496V15.8918H10.8279C10.7 15.8918 10.5774 15.841 10.4869 15.7506C10.3965 15.6601 10.3457 15.5375 10.3457 15.4096C10.3457 15.2817 10.3965 15.159 10.4869 15.0686C10.5774 14.9782 10.7 14.9274 10.8279 14.9274H15.168V11.0695C15.1677 10.9743 15.1956 10.8812 15.2481 10.8018C15.3007 10.7224 15.3756 10.6604 15.4633 10.6235C15.5524 10.5887 15.6495 10.5799 15.7434 10.5981C15.8372 10.6162 15.9241 10.6605 15.9938 10.726L20.3338 15.066Z" fill="white"/>
</svg>
