<svg width="22" height="21" viewBox="0 0 22 21" fill="none" xmlns="http://www.w3.org/2000/svg">
<path d="M21.092 9.98744C21.2821 10.1793 21.3887 10.4385 21.3887 10.7086C21.3887 10.9786 21.2821 11.2378 21.092 11.4297L11.9831 20.5386C11.7888 20.7243 11.5308 20.8284 11.262 20.8296C11.1277 20.829 10.9947 20.8032 10.8698 20.7536C10.6856 20.6762 10.5284 20.546 10.4181 20.3794C10.3078 20.2128 10.2493 20.0173 10.2499 19.8175V11.7207H1.14101C0.87258 11.7207 0.615149 11.614 0.425343 11.4242C0.235538 11.2344 0.128906 10.977 0.128906 10.7086C0.128906 10.4401 0.235538 10.1827 0.425343 9.99289C0.615149 9.80309 0.87258 9.69646 1.14101 9.69646H10.2499V1.59966C10.2493 1.39985 10.3078 1.20432 10.4181 1.03772C10.5284 0.871114 10.6856 0.740894 10.8698 0.663467C11.0568 0.590549 11.2605 0.572051 11.4575 0.610112C11.6546 0.648173 11.8368 0.741237 11.9831 0.878538L21.092 9.98744Z" fill="#030211"/>
</svg>
