<svg width="19" height="19" viewBox="0 0 19 19" fill="none" xmlns="http://www.w3.org/2000/svg">
<path d="M13.5472 2.29007C14.5389 2.29292 15.4892 2.6733 16.1905 3.34814C16.8918 4.02297 17.2871 4.93743 17.2901 5.89179V13.0945C17.2871 14.0488 16.8918 14.9633 16.1905 15.6381C15.4892 16.313 14.5389 16.6933 13.5472 16.6962H6.06212C5.07034 16.6933 4.12004 16.313 3.41874 15.6381C2.71745 14.9633 2.32216 14.0488 2.31919 13.0945V5.89179C2.32216 4.93743 2.71745 4.02297 3.41874 3.34814C4.12004 2.6733 5.07034 2.29292 6.06212 2.29007H13.5472ZM13.5472 0.849609H6.06212C3.18014 0.849609 0.822266 3.11853 0.822266 5.89179V13.0945C0.822266 15.8677 3.18014 18.1366 6.06212 18.1366H13.5472C16.4291 18.1366 18.787 15.8677 18.787 13.0945V5.89179C18.787 3.11853 16.4291 0.849609 13.5472 0.849609Z" fill="#030211"/>
<path d="M14.67 5.89208C14.4479 5.89208 14.2308 5.82871 14.0462 5.70999C13.8616 5.59127 13.7176 5.42253 13.6327 5.22511C13.5477 5.02768 13.5254 4.81044 13.5688 4.60086C13.6121 4.39127 13.719 4.19876 13.876 4.04765C14.0331 3.89655 14.2331 3.79365 14.4509 3.75196C14.6687 3.71027 14.8945 3.73167 15.0997 3.81345C15.3048 3.89522 15.4802 4.0337 15.6036 4.21138C15.7269 4.38906 15.7928 4.59795 15.7928 4.81164C15.7931 4.95361 15.7643 5.09425 15.708 5.22547C15.6516 5.35669 15.569 5.47592 15.4646 5.57631C15.3603 5.6767 15.2364 5.75627 15.1 5.81046C14.9637 5.86465 14.8175 5.89239 14.67 5.89208ZM9.80467 6.61212C10.3969 6.61212 10.9758 6.7811 11.4682 7.0977C11.9606 7.4143 12.3444 7.8643 12.571 8.39079C12.7976 8.91728 12.8569 9.49661 12.7414 10.0555C12.6259 10.6144 12.3407 11.1278 11.9219 11.5308C11.5032 11.9338 10.9696 12.2082 10.3888 12.3194C9.80799 12.4305 9.20595 12.3735 8.65882 12.1554C8.11169 11.9373 7.64405 11.568 7.31503 11.0942C6.98602 10.6204 6.81041 10.0633 6.81041 9.49342C6.81126 8.7295 7.127 7.9971 7.68835 7.45693C8.24969 6.91676 9.0108 6.61293 9.80467 6.61212ZM9.80467 5.17166C8.9164 5.17166 8.04807 5.42513 7.3095 5.90001C6.57093 6.37489 5.99528 7.04985 5.65535 7.83955C5.31543 8.62925 5.22649 9.49821 5.39978 10.3366C5.57307 11.1749 6.00082 11.945 6.62892 12.5494C7.25702 13.1538 8.05728 13.5654 8.92848 13.7321C9.79969 13.8989 10.7027 13.8133 11.5234 13.4862C12.344 13.1591 13.0455 12.6052 13.539 11.8945C14.0325 11.1837 14.2959 10.3482 14.2959 9.49342C14.2959 8.34722 13.8227 7.24796 12.9804 6.43747C12.1382 5.62699 10.9958 5.17166 9.80467 5.17166Z" fill="#030211"/>
</svg>
