<svg width="19" height="19" viewBox="0 0 19 19" fill="none" xmlns="http://www.w3.org/2000/svg">
<path d="M16.8306 0.71582H2.17996C1.37942 0.71582 0.679985 1.29183 0.679985 2.08296V16.7661C0.679985 17.5615 1.37942 18.2704 2.17996 18.2704H16.8263C17.6311 18.2704 18.2345 17.5568 18.2345 16.7661V2.08296C18.2392 1.29183 17.6311 0.71582 16.8306 0.71582ZM6.1215 15.3484H3.60666V7.52918H6.1215V15.3484ZM4.95107 6.34033H4.93305C4.1282 6.34033 3.60705 5.7412 3.60705 4.99122C3.60705 4.22751 4.14192 3.64249 4.96479 3.64249C5.78766 3.64249 6.29117 4.2232 6.3092 4.99122C6.30881 5.7412 5.78765 6.34033 4.95107 6.34033ZM15.3126 15.3484H12.7977V11.073C12.7977 10.0487 12.4317 9.3489 11.5219 9.3489C10.8268 9.3489 10.4153 9.81911 10.2323 10.2772C10.1638 10.4417 10.1453 10.6659 10.1453 10.8947V15.3484H7.63049V7.52918H10.1453V8.61733C10.5113 8.09618 11.083 7.34619 12.4133 7.34619C14.0642 7.34619 15.313 8.43434 15.313 10.7803L15.3126 15.3484Z" fill="#030211"/>
</svg>
