<svg width="39" height="36" viewBox="0 0 39 36" fill="none" xmlns="http://www.w3.org/2000/svg">
<path d="M11.7608 0L14.9948 3.234C13.4268 5.978 12.0548 8.722 10.8788 11.466C9.7028 14.112 9.0168 16.709 8.8208 19.257L16.1708 20.874V35.133H0.2948V24.843C0.2948 18.767 1.4708 13.867 3.8228 10.143C6.2728 6.321 8.9188 2.94 11.7608 0ZM33.8108 0L37.0448 3.234C35.4768 5.978 34.1048 8.722 32.9288 11.466C31.7528 14.112 31.0668 16.709 30.8708 19.257L38.2208 20.874V35.133H22.3448V24.843C22.3448 18.767 23.5208 13.867 25.8728 10.143C28.3228 6.321 30.9688 2.94 33.8108 0Z" fill="#030211"/>
</svg>
