<svg width="18" height="15" viewBox="0 0 18 15" fill="none" xmlns="http://www.w3.org/2000/svg">
<path d="M17.68 2.20768C17.0299 2.48994 16.3421 2.67589 15.6384 2.75967C16.378 2.32688 16.9342 1.63931 17.2027 0.825924C16.5034 1.23453 15.7396 1.52123 14.9441 1.67374C14.6091 1.3229 14.2062 1.0438 13.7599 0.853396C13.3136 0.662994 12.8332 0.565272 12.3479 0.566168C10.3832 0.566168 8.79321 2.13192 8.79321 4.06206C8.79182 4.33053 8.82261 4.59821 8.88491 4.85936C7.47606 4.79336 6.0965 4.43422 4.8345 3.80492C3.57251 3.17561 2.45585 2.29 1.55599 1.20474C1.2403 1.73656 1.07334 2.34335 1.07257 2.9617C1.07257 4.1739 1.70546 5.24539 2.66111 5.87314C2.09491 5.85971 1.54032 5.70996 1.04441 5.4366V5.47989C1.04441 7.17552 2.27192 8.58615 3.89655 8.90723C3.59104 8.98862 3.27622 9.02985 2.96004 9.0299C2.73569 9.03029 2.51184 9.00853 2.29177 8.96496C2.74342 10.3539 4.05793 11.3641 5.61506 11.393C4.34978 12.3674 2.79636 12.894 1.19893 12.8902C0.915385 12.8897 0.632101 12.8729 0.35051 12.8397C1.97557 13.8766 3.86458 14.4251 5.79269 14.4198C12.3403 14.4198 15.9174 9.09123 15.9174 4.46973C15.9174 4.3182 15.9135 4.16668 15.9062 4.01876C16.6005 3.52525 17.2012 2.91195 17.68 2.20768Z" fill="#030211"/>
</svg>
