<svg width="207" height="53" viewBox="0 0 207 53" fill="none" xmlns="http://www.w3.org/2000/svg">
<path d="M61.8917 17.1571H64.5917C64.645 17.6104 64.8517 18.0238 65.2117 18.3971C65.585 18.7571 66.0717 19.0438 66.6717 19.2571C67.2717 19.4571 67.945 19.5571 68.6917 19.5571C69.3717 19.5571 69.9317 19.4838 70.3717 19.3371C70.8117 19.1904 71.1383 18.9838 71.3517 18.7171C71.565 18.4504 71.6717 18.1304 71.6717 17.7571C71.6717 17.3971 71.5383 17.1238 71.2717 16.9371C71.005 16.7371 70.585 16.5771 70.0117 16.4571C69.4383 16.3238 68.685 16.1904 67.7517 16.0571C67.0183 15.9504 66.325 15.8038 65.6717 15.6171C65.0183 15.4171 64.4383 15.1638 63.9317 14.8571C63.4383 14.5504 63.045 14.1771 62.7517 13.7371C62.4717 13.2838 62.3317 12.7504 62.3317 12.1371C62.3317 11.3771 62.545 10.7104 62.9717 10.1371C63.4117 9.56376 64.0583 9.11709 64.9117 8.79709C65.765 8.47709 66.8117 8.31709 68.0517 8.31709C69.9183 8.31709 71.3517 8.71709 72.3517 9.51709C73.365 10.3038 73.8583 11.3904 73.8317 12.7771H71.2317C71.1783 11.9904 70.845 11.4238 70.2317 11.0771C69.6317 10.7304 68.8717 10.5571 67.9517 10.5571C67.0983 10.5571 66.3917 10.6838 65.8317 10.9371C65.285 11.1904 65.0117 11.6238 65.0117 12.2371C65.0117 12.4771 65.0783 12.6904 65.2117 12.8771C65.345 13.0504 65.5717 13.2038 65.8917 13.3371C66.2117 13.4704 66.645 13.5971 67.1917 13.7171C67.7383 13.8371 68.4183 13.9571 69.2317 14.0771C69.9917 14.1838 70.6783 14.3304 71.2917 14.5171C71.9183 14.6904 72.4517 14.9238 72.8917 15.2171C73.345 15.4971 73.6917 15.8571 73.9317 16.2971C74.1717 16.7371 74.2917 17.2771 74.2917 17.9171C74.2917 18.7038 74.085 19.3904 73.6717 19.9771C73.2717 20.5504 72.645 20.9971 71.7917 21.3171C70.9517 21.6371 69.8583 21.7971 68.5117 21.7971C67.5517 21.7971 66.705 21.6971 65.9717 21.4971C65.2383 21.2838 64.605 21.0038 64.0717 20.6571C63.5383 20.3104 63.105 19.9304 62.7717 19.5171C62.4383 19.1038 62.1983 18.6904 62.0517 18.2771C61.9183 17.8638 61.865 17.4904 61.8917 17.1571ZM86.7984 8.57709H100.438V10.7971H86.7984V8.57709ZM92.2984 10.5171H94.9584V21.5171H92.2984V10.5171ZM125.552 15.7971V8.57709H128.212V16.0771C128.212 16.9304 128.085 17.6771 127.832 18.3171C127.592 18.9571 127.245 19.4971 126.792 19.9371C126.339 20.3771 125.805 20.7371 125.192 21.0171C124.592 21.2838 123.932 21.4771 123.212 21.5971C122.505 21.7171 121.759 21.7771 120.972 21.7771C120.159 21.7771 119.385 21.7171 118.652 21.5971C117.919 21.4771 117.245 21.2838 116.632 21.0171C116.032 20.7371 115.512 20.3771 115.072 19.9371C114.632 19.4971 114.285 18.9571 114.032 18.3171C113.792 17.6771 113.672 16.9304 113.672 16.0771V8.57709H116.332V15.7971C116.332 16.8104 116.532 17.5838 116.932 18.1171C117.332 18.6371 117.879 18.9971 118.572 19.1971C119.279 19.3838 120.079 19.4771 120.972 19.4771C121.839 19.4771 122.612 19.3838 123.292 19.1971C123.985 18.9971 124.532 18.6371 124.932 18.1171C125.345 17.5838 125.552 16.8104 125.552 15.7971ZM149.989 8.57709C151.443 8.57709 152.656 8.75042 153.629 9.09709C154.603 9.44376 155.376 9.91709 155.949 10.5171C156.536 11.1038 156.949 11.7838 157.189 12.5571C157.443 13.3304 157.569 14.1438 157.569 14.9971C157.569 15.8504 157.429 16.6704 157.149 17.4571C156.883 18.2438 156.449 18.9438 155.849 19.5571C155.263 20.1571 154.483 20.6371 153.509 20.9971C152.549 21.3438 151.376 21.5171 149.989 21.5171H142.589V8.57709H149.989ZM145.249 19.2371H149.929C150.889 19.2371 151.683 19.1238 152.309 18.8971C152.949 18.6571 153.456 18.3371 153.829 17.9371C154.203 17.5371 154.469 17.0838 154.629 16.5771C154.789 16.0704 154.869 15.5438 154.869 14.9971C154.869 14.4504 154.789 13.9304 154.629 13.4371C154.469 12.9438 154.203 12.5038 153.829 12.1171C153.456 11.7304 152.949 11.4238 152.309 11.1971C151.683 10.9704 150.889 10.8571 149.929 10.8571H145.249V19.2371ZM171.847 8.57709H174.507V21.5171H171.847V8.57709ZM196.952 21.7771C195.232 21.7771 193.758 21.5104 192.532 20.9771C191.318 20.4304 190.385 19.6571 189.732 18.6571C189.092 17.6571 188.772 16.4571 188.772 15.0571C188.772 13.6438 189.092 12.4371 189.732 11.4371C190.385 10.4371 191.318 9.67042 192.532 9.13709C193.758 8.59042 195.232 8.31709 196.952 8.31709C198.685 8.31709 200.158 8.59042 201.372 9.13709C202.585 9.67042 203.512 10.4371 204.152 11.4371C204.805 12.4371 205.132 13.6438 205.132 15.0571C205.132 16.4571 204.805 17.6571 204.152 18.6571C203.512 19.6571 202.585 20.4304 201.372 20.9771C200.158 21.5104 198.685 21.7771 196.952 21.7771ZM196.952 19.4771C198.018 19.4771 198.952 19.3171 199.752 18.9971C200.565 18.6771 201.198 18.1904 201.652 17.5371C202.118 16.8838 202.352 16.0571 202.352 15.0571C202.352 14.0571 202.118 13.2304 201.652 12.5771C201.198 11.9238 200.565 11.4371 199.752 11.1171C198.952 10.7838 198.018 10.6171 196.952 10.6171C195.898 10.6171 194.958 10.7838 194.132 11.1171C193.305 11.4371 192.658 11.9238 192.192 12.5771C191.725 13.2304 191.492 14.0571 191.492 15.0571C191.492 16.0571 191.725 16.8838 192.192 17.5371C192.658 18.1904 193.305 18.6771 194.132 18.9971C194.958 19.3171 195.898 19.4771 196.952 19.4771ZM70.1917 45.7771C68.9917 45.7771 67.905 45.6371 66.9317 45.3571C65.9717 45.0771 65.1383 44.6571 64.4317 44.0971C63.7383 43.5371 63.205 42.8438 62.8317 42.0171C62.4583 41.1904 62.2717 40.2371 62.2717 39.1571C62.2717 38.0638 62.465 37.0971 62.8517 36.2571C63.2517 35.4038 63.8117 34.6838 64.5317 34.0971C65.265 33.5104 66.1317 33.0704 67.1317 32.7771C68.145 32.4704 69.265 32.3171 70.4917 32.3171C71.945 32.3171 73.1983 32.5238 74.2517 32.9371C75.305 33.3371 76.1317 33.9038 76.7317 34.6371C77.345 35.3704 77.6917 36.2438 77.7717 37.2571H75.2117C75.0383 36.7238 74.7517 36.2638 74.3517 35.8771C73.965 35.4771 73.4517 35.1704 72.8117 34.9571C72.1717 34.7304 71.3983 34.6171 70.4917 34.6171C69.3317 34.6171 68.3383 34.8038 67.5117 35.1771C66.6983 35.5504 66.0783 36.0771 65.6517 36.7571C65.225 37.4371 65.0117 38.2371 65.0117 39.1571C65.0117 40.0504 65.1983 40.8238 65.5717 41.4771C65.945 42.1171 66.5183 42.6104 67.2917 42.9571C68.0783 43.3038 69.0783 43.4771 70.2917 43.4771C71.225 43.4771 72.045 43.3571 72.7517 43.1171C73.4717 42.8638 74.0717 42.5304 74.5517 42.1171C75.0317 41.6904 75.3717 41.2171 75.5717 40.6971L76.6117 40.3171C76.4383 42.0371 75.785 43.3771 74.6517 44.3371C73.5317 45.2971 72.045 45.7771 70.1917 45.7771ZM75.9317 45.5171C75.9317 45.1038 75.9583 44.6304 76.0117 44.0971C76.065 43.5504 76.1317 43.0038 76.2117 42.4571C76.2917 41.8971 76.365 41.3838 76.4317 40.9171H70.5117V39.2171H78.2317V45.5171H75.9317ZM96.1329 45.5171V32.5771H104.913C105.913 32.5771 106.78 32.7171 107.513 32.9971C108.26 33.2638 108.84 33.6904 109.253 34.2771C109.666 34.8504 109.873 35.5904 109.873 36.4971C109.873 37.1104 109.766 37.6304 109.553 38.0571C109.34 38.4838 109.04 38.8304 108.653 39.0971C108.28 39.3638 107.846 39.5704 107.353 39.7171C106.86 39.8504 106.333 39.9371 105.773 39.9771L105.493 39.8171C106.426 39.8304 107.193 39.9104 107.793 40.0571C108.393 40.1904 108.84 40.4438 109.133 40.8171C109.44 41.1771 109.593 41.7171 109.593 42.4371V45.5171H106.933V42.6171C106.933 42.1238 106.846 41.7438 106.673 41.4771C106.5 41.1971 106.186 41.0038 105.733 40.8971C105.293 40.7904 104.653 40.7371 103.813 40.7371H98.7929V45.5171H96.1329ZM98.7929 38.6571H104.913C105.66 38.6571 106.226 38.4771 106.613 38.1171C107.013 37.7571 107.213 37.2704 107.213 36.6571C107.213 36.0704 107.013 35.6238 106.613 35.3171C106.226 35.0104 105.66 34.8571 104.913 34.8571H98.7929V38.6571ZM130.416 40.1171V43.2971H140.396V45.5171H127.756V32.5771H140.376V34.7971H130.416V38.0171H138.576V40.1171H130.416ZM160.887 40.1171V43.2971H170.867V45.5171H158.227V32.5771H170.847V34.7971H160.887V38.0171H169.047V40.1171H160.887ZM201.819 42.8771L200.979 43.2171V32.5771H203.639V45.5171H200.979L190.519 35.2971L191.359 34.9571V45.5171H188.699V32.5771H191.359L201.819 42.8771Z" fill="#030211"/>
<path d="M26.5934 0.713379L28.0721 18.1316L35.419 2.26957L30.8511 19.1431L43.1801 6.75044L33.1166 21.0441L48.9406 13.6155L34.5953 23.6053L52.0057 22.0368L35.1088 26.5177L52.0057 30.9986L34.5953 29.4301L48.9406 39.4199L33.1166 31.9913L43.1801 46.285L30.8511 33.8923L35.419 50.7658L28.0721 34.9038L26.5934 52.322L25.1147 34.9038L17.7678 50.7658L22.3357 33.8923L10.0067 46.285L20.0702 31.9913L4.24619 39.4199L18.5915 29.4301L1.18109 30.9986L18.078 26.5177L1.18109 22.0368L18.5915 23.6053L4.24619 13.6155L20.0702 21.0441L10.0067 6.75044L22.3357 19.1431L17.7678 2.26957L25.1147 18.1316L26.5934 0.713379Z" fill="#030211"/>
</svg>
