<svg width="186" height="49" viewBox="0 0 186 49" fill="none" xmlns="http://www.w3.org/2000/svg">
<path d="M62.5739 13.1702V17.0276C62.5739 17.8609 62.665 18.3785 62.8473 18.5803C63.0947 18.8668 63.4691 19.01 63.9704 19.01H64.4782V19.3713H58.8043V19.01H59.3024C59.8623 19.01 60.2627 18.8277 60.5036 18.4631C60.6338 18.2613 60.6989 17.7828 60.6989 17.0276V8.4729C60.6989 7.63957 60.611 7.12199 60.4352 6.92017C60.1813 6.63371 59.8037 6.49048 59.3024 6.49048H58.8043V6.12915H63.6579C64.8427 6.12915 65.777 6.25285 66.4606 6.50024C67.1442 6.74113 67.7204 7.15129 68.1891 7.73071C68.6579 8.31014 68.8922 8.99699 68.8922 9.79126C68.8922 10.872 68.5342 11.7509 67.818 12.428C67.1084 13.1051 66.1025 13.4436 64.8004 13.4436C64.4814 13.4436 64.1364 13.4208 63.7653 13.3752C63.3942 13.3297 62.997 13.2613 62.5739 13.1702ZM62.5739 12.6135C62.9189 12.6786 63.2249 12.7275 63.4918 12.76C63.7588 12.7926 63.9866 12.8088 64.1754 12.8088C64.8525 12.8088 65.4352 12.5484 65.9235 12.0276C66.4183 11.5002 66.6657 10.8199 66.6657 9.98657C66.6657 9.41366 66.5485 8.88306 66.3141 8.39478C66.0797 7.89998 65.7477 7.53215 65.318 7.29126C64.8883 7.04386 64.4 6.92017 63.8532 6.92017C63.5211 6.92017 63.0947 6.98201 62.5739 7.10571V12.6135ZM88.2196 5.82642C89.9383 5.82642 91.426 6.48071 92.6825 7.78931C93.9455 9.09139 94.577 10.719 94.577 12.6721C94.577 14.6838 93.9422 16.3538 92.6727 17.6819C91.4032 19.01 89.8667 19.6741 88.0633 19.6741C86.2404 19.6741 84.7072 19.0263 83.4637 17.7307C82.2267 16.4351 81.6082 14.7587 81.6082 12.7014C81.6082 10.5986 82.3244 8.88306 83.7567 7.55493C85.0002 6.40259 86.4878 5.82642 88.2196 5.82642ZM88.034 6.53931C86.8491 6.53931 85.8986 6.97876 85.1825 7.85767C84.2905 8.95142 83.8446 10.553 83.8446 12.6624C83.8446 14.8238 84.3068 16.4872 85.2313 17.6526C85.9409 18.538 86.8784 18.9807 88.0438 18.9807C89.2873 18.9807 90.3127 18.4957 91.12 17.5256C91.9338 16.5556 92.3407 15.0256 92.3407 12.9358C92.3407 10.6702 91.8947 8.98071 91.0028 7.86743C90.2866 6.98201 89.297 6.53931 88.034 6.53931ZM112.83 19.01V19.3713H107.156V19.01H107.625C108.172 19.01 108.569 18.8505 108.816 18.5315C108.973 18.3232 109.051 17.8219 109.051 17.0276V8.4729C109.051 7.80233 109.009 7.35962 108.924 7.14478C108.859 6.98201 108.725 6.84204 108.523 6.72485C108.237 6.5686 107.938 6.49048 107.625 6.49048H107.156V6.12915H112.83V6.49048H112.352C111.811 6.49048 111.417 6.64998 111.17 6.96899C111.007 7.17733 110.926 7.67863 110.926 8.4729V17.0276C110.926 17.6982 110.968 18.1409 111.053 18.3557C111.118 18.5185 111.255 18.6584 111.463 18.7756C111.743 18.9319 112.039 19.01 112.352 19.01H112.83ZM124.355 6.12915H127.948L136.044 16.0608V8.42407C136.044 7.61027 135.953 7.10246 135.771 6.90063C135.53 6.6272 135.149 6.49048 134.628 6.49048H134.169V6.12915H138.779V6.49048H138.31C137.75 6.49048 137.353 6.65975 137.118 6.99829C136.975 7.20662 136.904 7.68188 136.904 8.42407V19.5862H136.552L127.822 8.92212V17.0764C127.822 17.8902 127.909 18.398 128.085 18.5999C128.333 18.8733 128.713 19.01 129.228 19.01H129.697V19.3713H125.087V19.01H125.546C126.113 19.01 126.513 18.8407 126.747 18.5022C126.891 18.2939 126.962 17.8186 126.962 17.0764V7.86743C126.578 7.41821 126.285 7.12199 126.083 6.97876C125.888 6.83553 125.598 6.70207 125.214 6.57837C125.025 6.51978 124.739 6.49048 124.355 6.49048V6.12915ZM161.944 6.12915L162.09 9.23462H161.719C161.648 8.68774 161.55 8.29712 161.426 8.06274C161.224 7.68514 160.954 7.40845 160.616 7.23267C160.284 7.05037 159.844 6.95923 159.297 6.95923H157.432V17.0764C157.432 17.8902 157.52 18.398 157.696 18.5999C157.943 18.8733 158.324 19.01 158.838 19.01H159.297V19.3713H153.682V19.01H154.151C154.711 19.01 155.108 18.8407 155.342 18.5022C155.485 18.2939 155.557 17.8186 155.557 17.0764V6.95923H153.965C153.347 6.95923 152.907 7.0048 152.647 7.09595C152.308 7.21965 152.019 7.45728 151.778 7.80884C151.537 8.1604 151.394 8.63566 151.348 9.23462H150.977L151.133 6.12915H161.944ZM183.068 5.82642V10.4065H182.707C182.589 9.52759 182.378 8.82772 182.072 8.30688C181.772 7.78605 181.343 7.37264 180.783 7.06665C180.223 6.76066 179.644 6.60767 179.045 6.60767C178.367 6.60767 177.808 6.816 177.365 7.23267C176.922 7.64282 176.701 8.11157 176.701 8.63892C176.701 9.04256 176.841 9.4104 177.121 9.74243C177.524 10.2307 178.485 10.8818 180.002 11.6956C181.239 12.3596 182.082 12.8707 182.531 13.2288C182.987 13.5803 183.335 13.997 183.576 14.4788C183.823 14.9605 183.947 15.4651 183.947 15.9924C183.947 16.995 183.556 17.8609 182.775 18.5901C182 19.3127 181.001 19.6741 179.777 19.6741C179.393 19.6741 179.032 19.6448 178.693 19.5862C178.491 19.5536 178.071 19.4364 177.433 19.2346C176.802 19.0263 176.401 18.9221 176.232 18.9221C176.069 18.9221 175.939 18.9709 175.841 19.0686C175.75 19.1663 175.682 19.3681 175.636 19.6741H175.275V15.1331H175.636C175.806 16.0836 176.034 16.7965 176.32 17.2717C176.606 17.7405 177.043 18.1311 177.629 18.4436C178.221 18.7561 178.869 18.9124 179.572 18.9124C180.386 18.9124 181.027 18.6975 181.496 18.2678C181.971 17.8381 182.209 17.3303 182.209 16.7444C182.209 16.4189 182.117 16.0901 181.935 15.7581C181.759 15.426 181.483 15.1168 181.105 14.8303C180.851 14.635 180.158 14.2216 179.025 13.5901C177.892 12.9521 177.085 12.4443 176.603 12.0667C176.128 11.689 175.767 11.2724 175.519 10.8167C175.272 10.3609 175.148 9.85962 175.148 9.31274C175.148 8.36222 175.513 7.54517 176.242 6.86157C176.971 6.17147 177.899 5.82642 179.025 5.82642C179.728 5.82642 180.474 5.99894 181.261 6.34399C181.626 6.50675 181.883 6.58813 182.033 6.58813C182.202 6.58813 182.339 6.53931 182.443 6.44165C182.554 6.33748 182.642 6.13241 182.707 5.82642H183.068ZM65.7868 28.8264C67.5055 28.8264 68.9931 29.4807 70.2496 30.7893C71.5127 32.0914 72.1442 33.719 72.1442 35.6721C72.1442 37.6838 71.5094 39.3538 70.2399 40.6819C68.9704 42.01 67.4339 42.6741 65.6305 42.6741C63.8076 42.6741 62.2744 42.0263 61.0309 40.7307C59.7939 39.4351 59.1754 37.7587 59.1754 35.7014C59.1754 33.5986 59.8916 31.8831 61.3239 30.5549C62.5674 29.4026 64.055 28.8264 65.7868 28.8264ZM65.6012 29.5393C64.4163 29.5393 63.4658 29.9788 62.7496 30.8577C61.8577 31.9514 61.4118 33.553 61.4118 35.6624C61.4118 37.8238 61.874 39.4872 62.7985 40.6526C63.5081 41.538 64.4456 41.9807 65.611 41.9807C66.8545 41.9807 67.8799 41.4957 68.6871 40.5256C69.501 39.5556 69.9079 38.0256 69.9079 35.9358C69.9079 33.6702 69.4619 31.9807 68.57 30.8674C67.8538 29.982 66.8642 29.5393 65.6012 29.5393ZM83.9618 29.1292H87.5555L95.6512 39.0608V31.4241C95.6512 30.6103 95.5601 30.1025 95.3778 29.9006C95.1369 29.6272 94.756 29.4905 94.2352 29.4905H93.7762V29.1292H98.3856V29.4905H97.9168C97.3569 29.4905 96.9598 29.6597 96.7254 29.9983C96.5822 30.2066 96.5106 30.6819 96.5106 31.4241V42.5862H96.159L87.4286 31.9221V40.0764C87.4286 40.8902 87.5164 41.398 87.6922 41.5999C87.9396 41.8733 88.3205 42.01 88.8348 42.01H89.3036V42.3713H84.6942V42.01H85.1532C85.7196 42.01 86.12 41.8407 86.3543 41.5022C86.4976 41.2939 86.5692 40.8186 86.5692 40.0764V30.8674C86.1851 30.4182 85.8921 30.122 85.6903 29.9788C85.495 29.8355 85.2052 29.7021 84.8211 29.5784C84.6323 29.5198 84.3459 29.4905 83.9618 29.4905V29.1292ZM114.158 29.8518V35.0862H117.068C117.824 35.0862 118.328 34.9722 118.582 34.7444C118.921 34.4449 119.109 33.9176 119.148 33.1624H119.51V37.7717H119.148C119.057 37.1272 118.966 36.7138 118.875 36.5315C118.758 36.3036 118.566 36.1246 118.299 35.9944C118.032 35.8642 117.622 35.7991 117.068 35.7991H114.158V40.1643C114.158 40.7502 114.184 41.1083 114.236 41.2385C114.288 41.3622 114.38 41.4631 114.51 41.5413C114.64 41.6129 114.887 41.6487 115.252 41.6487H117.498C118.247 41.6487 118.79 41.5966 119.129 41.4924C119.467 41.3883 119.793 41.1832 120.106 40.8772C120.509 40.4736 120.923 39.8648 121.346 39.051H121.736L120.594 42.3713H110.389V42.01H110.857C111.17 42.01 111.466 41.9351 111.746 41.7854C111.954 41.6812 112.094 41.525 112.166 41.3167C112.244 41.1083 112.283 40.6819 112.283 40.0374V31.4338C112.283 30.594 112.199 30.0764 112.029 29.8811C111.795 29.6207 111.404 29.4905 110.857 29.4905H110.389V29.1292H120.594L120.74 32.0295H120.359C120.223 31.3329 120.07 30.8544 119.9 30.594C119.738 30.3336 119.494 30.135 119.168 29.9983C118.908 29.9006 118.449 29.8518 117.791 29.8518H114.158Z" fill="#030211"/>
<path d="M5.91286 14.135L23.896 1.4452L41.8791 14.135L43.8773 36.0538L23.896 45.2827L3.91473 36.0538L5.91286 14.135Z" stroke="black"/>
<path d="M9.27642 16.0769L23.896 5.76063L38.5156 16.0769L40.14 33.896L23.896 41.3988L7.65203 33.896L9.27642 16.0769Z" stroke="black"/>
<path d="M12.5902 17.9905L23.896 10.0126L35.2018 17.9905L36.458 31.7706L23.896 37.5727L11.334 31.7706L12.5902 17.9905Z" stroke="black"/>
<path d="M16.2658 20.1126L23.896 14.7284L31.5261 20.1126L32.3739 29.4127L23.896 33.3285L15.418 29.4127L16.2658 20.1126Z" stroke="black"/>
<rect x="127.077" y="29.2649" width="57.5341" height="2.17102" fill="#030211"/>
<rect x="127.077" y="34.3313" width="57.5341" height="2.17102" fill="#030211"/>
<rect x="127.077" y="39.5188" width="57.5341" height="2.17102" fill="#030211"/>
</svg>
