<svg width="176" height="176" viewBox="0 0 176 176" fill="none" xmlns="http://www.w3.org/2000/svg">
<circle cx="88" cy="87.9461" r="87.1953" stroke="#EEEEEE" stroke-width="0.672506"/>
<circle cx="88.0001" cy="87.9461" r="55.8671" stroke="#EEEEEE" stroke-width="0.672506"/>
<path d="M88.1738 86.7546L88.1738 79.3152" stroke="#141414" stroke-width="1.34501" stroke-linecap="round" stroke-linejoin="round"/>
<rect x="73.3569" y="63.664" width="29.6337" height="46.7856" rx="14.7913" stroke="#030211" stroke-width="1.34501"/>
<path d="M45.8627 39.5221C45.2164 40.0397 44.6993 40.4279 44.0529 40.8162C43.4066 41.2044 42.7602 41.3338 42.1139 41.4632C41.8553 41.4632 41.5968 41.4632 41.4675 41.3338C41.3382 41.2044 41.209 41.075 41.0797 40.8162C41.0797 40.6867 41.0797 40.4279 41.0797 40.2985C41.209 40.1691 41.3382 40.0397 41.5968 40.0397C42.2431 39.9103 42.7602 39.7809 43.2773 39.5221C43.7944 39.2633 44.3115 38.8751 44.8286 38.4869C45.6042 37.8399 45.992 37.3223 46.1213 36.6753C46.2506 36.1577 46.1213 35.6401 45.7335 35.2519C45.4749 34.8636 45.0871 34.7342 44.6993 34.7342C44.3115 34.7342 43.7944 34.993 43.0188 35.2519L41.4675 36.1577C40.5626 36.6753 39.6577 36.9341 38.8821 36.8047C38.1064 36.8047 37.4601 36.4165 36.943 35.7695C36.4259 35.2519 36.1674 34.6048 36.1674 33.9578C36.1674 33.3108 36.1674 32.6638 36.5552 32.0168C36.8137 31.3698 37.3308 30.7228 37.9772 30.2052C38.4943 29.817 39.0113 29.4287 39.6577 29.1699C40.1748 28.9111 40.8211 28.7817 41.4675 28.7817C41.726 28.7817 41.8553 28.7817 41.9846 28.9111C42.1139 29.0405 42.2431 29.1699 42.2431 29.4287C42.2431 29.5582 42.2431 29.817 42.1139 29.9464C41.9846 30.0758 41.8553 30.2052 41.5968 30.2052C41.0797 30.2052 40.5626 30.3346 40.1748 30.5934C39.787 30.8522 39.2699 31.111 38.8821 31.3698C38.2357 31.8874 37.8479 32.5344 37.7186 33.052C37.5893 33.699 37.7186 34.2166 38.1064 34.6048C38.365 34.993 38.7528 35.1225 39.1406 35.1225C39.5284 35.1225 40.0455 34.993 40.6919 34.6048L42.2431 33.699C43.2773 33.1814 44.0529 32.9226 44.8286 32.9226C45.6042 32.9226 46.2506 33.3108 46.7677 33.8284C47.1555 34.346 47.414 34.993 47.5433 35.5107C47.6726 36.0283 47.414 36.8047 47.1555 37.4517C47.0262 38.2281 46.5091 38.8751 45.8627 39.5221Z" fill="#030211"/>
<path d="M59.307 30.7227C58.2729 31.2404 57.2387 31.4992 56.2045 31.4992C55.1703 31.4992 54.2654 31.111 53.4898 30.4639C52.7142 29.8169 51.9385 29.0405 51.4214 27.8759C50.9044 26.7113 50.5165 25.6761 50.5165 24.6408C50.5165 23.6056 50.7751 22.6998 51.2922 21.9234C51.8093 21.147 52.5849 20.3706 53.7483 19.8529C54.3947 19.5941 54.9118 19.3353 55.5581 19.2059C56.2045 19.0765 56.7216 19.0765 57.368 19.2059C57.6265 19.2059 57.885 19.3353 58.0143 19.4647C58.1436 19.5941 58.1436 19.8529 58.1436 19.9824C58.1436 20.2412 58.0143 20.3706 57.885 20.5C57.7558 20.6294 57.4972 20.6294 57.2387 20.6294C56.7216 20.5 56.3338 20.5 55.8167 20.6294C55.2996 20.7588 54.9118 20.8882 54.524 21.0176C53.3605 21.5352 52.7142 22.441 52.4556 23.3468C52.1971 24.2526 52.4556 25.5467 53.102 26.8407C53.7483 28.1347 54.524 29.0405 55.5581 29.4287C56.463 29.8169 57.6265 29.6875 58.6607 29.1699C59.0485 28.9111 59.4363 28.6523 59.8241 28.3935C60.2119 28.0053 60.4705 27.7465 60.729 27.2289C60.8583 26.9701 60.9876 26.8407 61.2461 26.8407C61.3754 26.8407 61.6339 26.8407 61.7632 26.9701C61.8925 27.0995 62.0217 27.2289 62.151 27.4877C62.151 27.7465 62.151 27.8759 62.0217 28.1347C61.7632 28.6523 61.3754 29.1699 60.9876 29.6875C60.3412 29.9463 59.8241 30.3345 59.307 30.7227Z" fill="#030211"/>
<path d="M69.6488 26.5819C69.1317 26.7113 68.7439 26.4525 68.6146 25.9349L66.417 15.9709C66.2877 15.4533 66.5463 15.0651 67.0633 14.9357L70.9415 14.0299C72.2342 13.7711 73.2684 13.7711 74.044 14.2887C74.8197 14.6769 75.3367 15.4533 75.5953 16.6179C75.7246 17.5237 75.7246 18.3001 75.3367 18.9471C74.9489 19.5942 74.4318 20.1118 73.6562 20.5C74.1733 20.5 74.8197 20.8882 75.2075 21.4058L77.1466 23.735C77.4051 23.9938 77.5344 24.2526 77.4051 24.5114C77.4051 24.7702 77.1466 24.8997 76.7587 25.0291C76.5002 25.0291 76.3709 25.0291 76.1124 25.0291C75.9831 25.0291 75.7246 24.8997 75.5953 24.6408L73.1391 21.794C72.7513 21.4058 72.4928 21.147 72.1049 21.147C71.7171 21.0176 71.3293 21.0176 70.9415 21.147L69.1317 21.5352L70.0366 25.5467C70.4244 26.0643 70.1659 26.4525 69.6488 26.5819ZM69.1317 20.2412L71.9757 19.5942C73.6562 19.206 74.3026 18.3001 74.044 17.0061C73.7855 15.5827 72.7513 15.0651 71.0708 15.4533L68.2268 16.1003L69.1317 20.2412Z" fill="#030211"/>
<path d="M89.2981 24.3821C88.1347 24.3821 87.2297 23.9939 86.3248 23.4763C85.5492 22.9587 84.9029 22.1822 84.515 21.2764C84.1272 20.3706 83.8687 19.206 83.998 18.0414C83.998 16.7473 84.2565 15.7121 84.7736 14.8063C85.2907 13.9005 85.937 13.2535 86.7127 12.7359C87.6176 12.3477 88.5225 12.2183 89.6859 12.2183C90.8494 12.2183 91.7543 12.4771 92.5299 13.1241C93.3055 13.6417 93.9519 14.4181 94.3397 15.3239C94.7275 16.2297 94.9861 17.265 94.8568 18.559C94.8568 19.853 94.5982 20.8882 94.0812 21.794C93.6933 22.5704 93.047 23.2175 92.2714 23.7351C91.4957 24.2527 90.3323 24.3821 89.2981 24.3821ZM89.2981 22.8293C90.4615 22.8293 91.3664 22.441 92.1421 21.6646C92.7884 20.8882 93.1763 19.7236 93.3055 18.3002C93.3055 16.8767 93.047 15.7121 92.4006 14.9357C91.7543 14.1593 90.8494 13.6417 89.6859 13.6417C88.5225 13.6417 87.6176 13.9005 86.8419 14.6769C86.1956 15.4533 85.8078 16.6179 85.6785 18.0414C85.5492 19.4648 85.937 20.6294 86.5834 21.4058C87.2297 22.441 88.1347 22.8293 89.2981 22.8293Z" fill="#030211"/>
<path d="M102.225 25.9348C101.708 25.8054 101.45 25.4172 101.579 24.7702L104.423 15.065C104.552 14.5474 104.94 14.2886 105.457 14.418C105.974 14.5474 106.233 14.9356 106.103 15.4532L103.518 24.6408L108.56 26.0642C109.077 26.1936 109.206 26.4524 109.077 26.97C108.947 27.4876 108.56 27.617 108.172 27.4876L102.225 25.9348Z" fill="#030211"/>
<path d="M115.023 30.5934C114.506 30.3346 114.377 29.9464 114.635 29.4288L119.418 20.5C119.677 19.9824 120.065 19.853 120.582 20.1118C121.099 20.3706 121.228 20.7588 120.97 21.2764L116.445 29.6876L120.97 32.1462C121.487 32.405 121.487 32.7933 121.358 33.1815C121.099 33.5697 120.711 33.6991 120.323 33.4403L115.023 30.5934Z" fill="#030211"/>
<path d="M133.251 43.9217C132.863 43.4041 132.863 43.0159 133.38 42.6277L141.007 36.287C141.524 35.8988 141.912 35.8988 142.3 36.4164L144.368 38.875C145.661 40.4278 146.178 41.8513 146.048 43.2747C145.919 44.6981 145.144 46.1215 143.722 47.2862C142.3 48.4508 140.748 49.0978 139.326 48.839C137.904 48.7096 136.482 47.8038 135.19 46.3803L133.251 43.9217ZM134.931 43.6629L136.482 45.4745C138.421 47.6744 140.49 47.9332 142.687 45.9921C145.014 44.0511 145.144 41.9807 143.334 39.7808L141.782 37.9692L134.931 43.6629Z" fill="#030211"/>
<path d="M144.756 61.5208C144.239 60.4855 144.109 59.4503 144.239 58.5445C144.368 57.6387 144.756 56.7329 145.402 55.9565C146.048 55.18 146.953 54.533 147.988 54.0154C149.151 53.4978 150.185 53.239 151.219 53.239C152.254 53.239 153.158 53.6272 153.934 54.1448C154.71 54.6624 155.356 55.4389 155.873 56.4741C156.39 57.5093 156.519 58.5445 156.39 59.4503C156.261 60.3561 155.873 61.262 155.227 62.0384C154.58 62.8148 153.676 63.4618 152.641 63.9794C151.478 64.497 150.444 64.7558 149.41 64.7558C148.375 64.7558 147.47 64.3676 146.695 63.85C145.79 63.3324 145.273 62.556 144.756 61.5208ZM146.178 60.8737C146.695 61.909 147.47 62.556 148.375 62.8148C149.41 63.0736 150.573 62.9442 151.866 62.2972C153.158 61.6502 154.063 60.8737 154.58 59.9679C155.097 59.0621 154.968 58.0269 154.58 56.9917C154.063 55.9565 153.288 55.3094 152.383 55.0506C151.349 54.7918 150.185 54.9212 148.892 55.5683C147.6 56.2153 146.695 56.9917 146.178 57.8975C145.661 58.8033 145.661 59.8385 146.178 60.8737Z" fill="#030211"/>
<path d="M149.539 76.4018C149.539 75.8842 149.668 75.6254 150.185 75.3666L160.01 70.5787C160.268 70.4493 160.527 70.4493 160.785 70.5787C161.044 70.7081 161.173 70.9669 161.173 71.2258C161.173 71.4846 161.173 71.614 161.044 71.8728C160.915 72.0022 160.785 72.1316 160.527 72.261L152.254 76.2724L161.303 78.2135C161.82 78.3429 162.078 78.6017 162.078 78.9899C162.078 79.2487 162.078 79.3781 161.949 79.5075C161.82 79.6369 161.69 79.7663 161.432 79.8957L153.029 83.9072L162.207 85.8482C162.466 85.8482 162.595 85.9776 162.725 86.107C162.854 86.2364 162.983 86.3658 162.983 86.6246C162.983 86.8834 162.983 87.1422 162.725 87.2716C162.595 87.401 162.337 87.5304 161.949 87.401L151.219 85.0718C150.961 84.9424 150.702 84.9424 150.573 84.813C150.444 84.6836 150.314 84.5542 150.314 84.2954C150.314 84.0366 150.314 83.7778 150.444 83.6484C150.573 83.519 150.702 83.3896 150.961 83.2602L159.105 79.2487L150.185 77.3077C149.927 77.3077 149.668 77.1783 149.539 77.0489C149.668 76.7901 149.668 76.6606 149.539 76.4018Z" fill="#030211"/>
<path d="M150.185 95.9417C150.314 95.4241 150.573 95.1653 151.219 95.2947L161.432 97.2357C161.69 97.2357 161.949 97.3651 162.078 97.6239C162.207 97.7533 162.207 98.0121 162.207 98.271C162.207 98.5298 162.078 98.6592 161.949 98.6592C161.82 98.6592 161.69 98.7886 161.432 98.918L151.736 103.706L159.881 105.259C160.398 105.388 160.656 105.647 160.527 106.164C160.398 106.682 160.139 106.941 159.622 106.811L149.41 104.87C149.151 104.87 149.022 104.741 148.892 104.612C148.763 104.482 148.763 104.223 148.763 104.094C148.763 103.835 148.892 103.706 149.022 103.576C149.151 103.447 149.28 103.318 149.539 103.318L159.234 98.5298L151.09 96.9769C150.314 96.7181 150.056 96.4593 150.185 95.9417Z" fill="#030211"/>
<path d="M128.209 136.186C128.855 135.668 129.372 135.28 130.019 134.892C130.665 134.503 131.311 134.374 131.958 134.245C132.216 134.245 132.475 134.245 132.604 134.374C132.733 134.503 132.863 134.633 132.992 134.892C132.992 135.021 132.992 135.28 132.992 135.409C132.992 135.539 132.733 135.668 132.475 135.668C131.829 135.797 131.311 135.927 130.794 136.186C130.277 136.444 129.76 136.833 129.243 137.221C128.467 137.868 128.08 138.385 127.95 139.033C127.821 139.55 127.95 140.068 128.338 140.456C128.597 140.844 128.985 140.974 129.372 140.974C129.76 140.974 130.277 140.715 131.053 140.327L132.604 139.421C133.509 138.903 134.414 138.644 135.19 138.774C135.965 138.774 136.612 139.162 137.129 139.809C137.646 140.327 137.904 140.974 137.904 141.621C138.034 142.268 137.904 142.915 137.517 143.562C137.258 144.209 136.741 144.856 136.095 145.373C135.577 145.891 135.06 146.15 134.414 146.408C133.897 146.667 133.251 146.797 132.604 146.797C132.346 146.797 132.216 146.797 132.087 146.667C131.958 146.538 131.829 146.408 131.829 146.15C131.829 145.891 131.829 145.761 131.958 145.632C132.087 145.503 132.216 145.373 132.475 145.373C132.992 145.373 133.509 145.114 133.897 144.985C134.285 144.726 134.802 144.467 135.19 144.209C135.836 143.691 136.224 143.044 136.353 142.526C136.482 141.879 136.353 141.362 135.965 140.974C135.707 140.585 135.319 140.456 134.931 140.456C134.543 140.456 134.026 140.585 133.38 140.974L131.829 141.879C130.794 142.397 130.019 142.656 129.243 142.656C128.467 142.656 127.821 142.268 127.304 141.75C126.787 141.232 126.658 140.585 126.528 140.068C126.528 139.421 126.658 138.774 126.916 138.127C127.045 137.48 127.563 136.833 128.209 136.186Z" fill="#030211"/>
<path d="M114.765 144.985C115.799 144.467 116.833 144.208 117.867 144.208C118.901 144.208 119.806 144.597 120.582 145.244C121.358 145.891 122.133 146.667 122.65 147.832C123.167 148.996 123.555 150.032 123.555 151.067C123.555 152.102 123.297 153.008 122.78 153.784C122.262 154.561 121.487 155.337 120.323 155.855C119.677 156.114 119.16 156.372 118.514 156.502C117.867 156.631 117.35 156.631 116.704 156.502C116.445 156.502 116.187 156.372 116.057 156.243C115.928 156.114 115.928 155.855 115.928 155.725C115.928 155.466 116.057 155.337 116.187 155.208C116.316 155.078 116.574 155.078 116.833 155.078C117.35 155.208 117.738 155.208 118.255 155.078C118.772 154.949 119.16 154.819 119.548 154.561C120.711 154.043 121.358 153.137 121.616 152.231C121.875 151.326 121.616 150.032 120.97 148.738C120.323 147.444 119.548 146.667 118.514 146.15C117.609 145.761 116.445 145.891 115.411 146.408C115.023 146.667 114.635 146.926 114.248 147.185C113.86 147.573 113.601 147.832 113.343 148.349C113.213 148.608 113.084 148.738 112.826 148.738C112.696 148.738 112.438 148.738 112.309 148.608C112.179 148.479 112.05 148.349 111.921 148.091C111.921 147.832 111.921 147.702 112.05 147.444C112.308 146.926 112.696 146.408 113.084 145.891C113.73 145.761 114.248 145.373 114.765 144.985Z" fill="#030211"/>
<path d="M104.423 149.126C104.94 148.997 105.328 149.255 105.457 149.773L107.655 159.737C107.784 160.255 107.525 160.643 107.008 160.772L103.13 161.678C101.837 161.937 100.803 161.937 100.028 161.419C99.252 161.031 98.7349 160.255 98.4764 159.09C98.2179 158.184 98.3471 157.408 98.7349 156.761C99.1228 156.114 99.6398 155.596 100.415 155.208C99.8984 155.208 99.252 154.82 98.8642 154.302L96.9251 151.973C96.6666 151.714 96.5373 151.455 96.6666 151.196C96.7959 150.938 96.9251 150.808 97.313 150.679C97.5715 150.679 97.7008 150.679 97.9593 150.679C98.0886 150.679 98.3471 150.808 98.4764 151.067L100.933 153.914C101.32 154.302 101.579 154.561 101.967 154.561C102.355 154.69 102.742 154.69 103.13 154.561L104.94 154.173L104.035 150.161C103.647 149.644 103.906 149.255 104.423 149.126ZM104.94 155.467L102.096 156.114C100.415 156.502 99.7691 157.408 100.028 158.831C100.286 160.255 101.32 160.643 103.001 160.384L105.845 159.737L104.94 155.467Z" fill="#030211"/>
<path d="M84.7736 151.455C85.937 151.455 86.8419 151.714 87.7468 152.361C88.5225 152.878 89.1688 153.655 89.5567 154.561C89.9445 155.466 90.203 156.631 90.0737 157.796C90.0737 159.09 89.8152 160.125 89.2981 161.031C88.781 161.937 88.1347 162.584 87.359 163.101C86.4541 163.619 85.5492 163.748 84.3858 163.748C83.2223 163.748 82.3174 163.489 81.5418 162.972C80.7662 162.454 80.1198 161.678 79.732 160.772C79.3442 159.866 79.0856 158.831 79.2149 157.537C79.2149 156.243 79.4734 155.208 79.9905 154.302C80.5076 153.396 81.154 152.749 81.9296 152.231C82.7052 151.584 83.7394 151.326 84.7736 151.455ZM84.7736 152.878C83.6101 152.878 82.7052 153.267 81.9296 154.043C81.2833 154.819 80.8954 155.984 80.8954 157.407C80.8954 158.831 81.154 159.996 81.8003 160.772C82.4467 161.548 83.3516 162.066 84.5151 162.066C85.6785 162.066 86.5834 161.678 87.359 160.901C88.0054 160.125 88.3932 158.96 88.3932 157.537C88.3932 156.113 88.1347 154.949 87.4883 154.172C86.8419 153.396 85.937 153.008 84.7736 152.878Z" fill="#030211"/>
<path d="M71.8464 149.773C72.3635 149.902 72.622 150.29 72.4928 150.937L69.778 160.643C69.6488 161.16 69.261 161.419 68.7439 161.29C68.2268 161.16 67.9682 160.772 68.0975 160.254L70.683 151.067L65.6413 149.643C65.1243 149.514 64.995 149.255 65.1243 148.738C65.2535 148.22 65.6413 148.091 66.0292 148.22L71.8464 149.773Z" fill="#030211"/>
<path d="M59.0485 145.244C59.5656 145.503 59.6948 145.891 59.4363 146.408L54.6532 155.337C54.3947 155.855 54.0069 155.984 53.4898 155.725C52.9727 155.466 52.8434 155.078 53.102 154.561L57.6265 146.15L52.9727 143.691C52.4556 143.432 52.4556 143.173 52.5849 142.656C52.8434 142.267 53.2312 142.138 53.6191 142.397L59.0485 145.244Z" fill="#030211"/>
<path d="M40.8211 131.915C41.209 132.433 41.209 132.821 40.6919 133.209L33.0648 139.679C32.5477 140.068 32.1599 140.068 31.7721 139.55L29.7038 137.091C28.411 135.539 27.894 134.115 28.0232 132.692C28.1525 131.268 28.9281 129.845 30.3501 128.68C31.7721 127.516 33.3234 126.869 34.7454 127.127C36.1674 127.257 37.5893 128.163 38.8821 129.586L40.8211 131.915ZM39.1406 132.174L37.5893 130.363C35.6503 128.163 33.5819 127.904 31.3843 129.845C29.0574 131.786 28.9281 133.856 30.7379 136.056L32.2892 137.868L39.1406 132.174Z" fill="#030211"/>
<path d="M29.3159 114.446C29.833 115.481 29.9623 116.517 29.833 117.422C29.7038 118.328 29.3159 119.234 28.6696 120.011C28.0232 120.787 27.1183 121.434 26.0842 121.952C24.9207 122.469 23.8865 122.728 22.8524 122.728C21.8182 122.728 20.9133 122.34 20.1376 121.822C19.362 121.305 18.7157 120.528 18.1986 119.493C17.6815 118.458 17.5522 117.422 17.6815 116.517C17.8108 115.611 18.1986 114.705 18.8449 113.929C19.4913 113.152 20.3962 112.505 21.4304 111.988C22.5938 111.47 23.628 111.211 24.6622 111.211C25.6963 111.211 26.6012 111.47 27.3769 112.117C28.1525 112.635 28.7989 113.411 29.3159 114.446ZM27.894 115.093C27.3769 114.058 26.6012 113.411 25.6963 113.152C24.6622 112.893 23.4987 113.023 22.206 113.67C20.9133 114.317 20.0084 115.093 19.6206 115.999C19.2327 116.905 19.2327 117.94 19.7498 118.975C20.2669 120.011 21.0426 120.658 21.9475 120.916C22.9816 121.175 24.1451 121.046 25.4378 120.399C26.7305 119.752 27.6354 118.975 28.1525 118.07C28.411 117.164 28.411 116.128 27.894 115.093Z" fill="#030211"/>
<path d="M24.4036 99.5648C24.4036 100.082 24.2743 100.341 23.7573 100.6L13.9326 105.388C13.6741 105.517 13.4155 105.517 13.157 105.388C12.8984 105.258 12.7691 105 12.7691 104.741C12.7691 104.482 12.7691 104.353 12.8984 104.094C13.0277 103.964 13.157 103.835 13.4155 103.706L21.6889 99.6942L12.6399 97.7531C12.1228 97.6237 11.8642 97.3649 11.735 96.9767C11.735 96.7179 11.735 96.5885 11.8642 96.4591C11.9935 96.3297 12.1228 96.2003 12.3813 96.0709L20.784 92.0594L11.6057 90.1184C11.3472 90.1184 11.2179 89.989 11.0886 89.8596C11.0886 89.7302 10.9593 89.6008 10.9593 89.342C10.9593 89.0832 10.9593 88.8244 11.2179 88.695C11.3472 88.5656 11.6057 88.4362 11.9935 88.5656L22.5938 90.8948C22.8524 91.0242 23.1109 91.0242 23.2402 91.1536C23.3694 91.283 23.4987 91.4124 23.4987 91.6712C23.4987 91.93 23.4987 92.1888 23.3694 92.3182C23.2402 92.4476 23.1109 92.577 22.8524 92.7064L14.7082 96.7179L23.628 98.6589C23.8865 98.6589 24.1451 98.7883 24.2743 98.9177C24.2743 99.1766 24.4036 99.306 24.4036 99.5648Z" fill="#030211"/>
<path d="M23.7573 80.0248C23.628 80.5424 23.3694 80.8012 22.7231 80.6718L12.5106 78.7308C12.2521 78.7308 11.9935 78.6014 11.8642 78.3426C11.735 78.2132 11.735 77.9544 11.735 77.6956C11.735 77.4368 11.8642 77.3074 11.9935 77.3074C12.1228 77.178 12.2521 77.178 12.5106 77.0486L22.0767 72.2607L13.9326 70.7079C13.4155 70.5785 13.157 70.3196 13.2862 69.802C13.5448 69.2844 13.8033 69.155 14.3204 69.155L24.5329 71.0961C24.7914 71.0961 24.9207 71.2255 25.05 71.3549C25.1793 71.4843 25.1793 71.7431 25.1793 71.8725C25.1793 72.1313 25.05 72.2607 24.9207 72.3901C24.7914 72.5195 24.6622 72.6489 24.4036 72.6489L14.7082 77.4368L22.8524 78.9896C23.628 79.2484 23.8865 79.5072 23.7573 80.0248Z" fill="#030211"/>
<path d="M26.904 46.3679L28.464 50.7545L32.6688 48.7558L30.67 52.9606L35.0566 54.5205L30.67 56.0805L32.6688 60.2853L28.464 58.2866L26.904 62.6732L25.3441 58.2866L21.1392 60.2853L23.138 56.0805L18.7514 54.5205L23.138 52.9606L21.1392 48.7558L25.3441 50.7545L26.904 46.3679Z" fill="#1C1C1C"/>
<path d="M147.52 115.291L149.08 119.678L153.285 117.679L151.286 121.884L155.672 123.444L151.286 125.004L153.285 129.209L149.08 127.21L147.52 131.597L145.96 127.21L141.755 129.209L143.754 125.004L139.367 123.444L143.754 121.884L141.755 117.679L145.96 119.678L147.52 115.291Z" fill="#1C1C1C"/>
</svg>
