<svg width="32" height="31" viewBox="0 0 32 31" fill="none" xmlns="http://www.w3.org/2000/svg">
<path d="M14.9681 1.01659C15.3684 0.501223 16.1472 0.501224 16.5475 1.01659L17.5358 2.28876C17.8463 2.68844 18.4064 2.79314 18.8403 2.53261L20.2214 1.70335C20.7808 1.36741 21.507 1.64871 21.6941 2.27391L22.1561 3.81717C22.3012 4.30201 22.7857 4.60198 23.2844 4.51579L24.8718 4.24143C25.5149 4.13028 26.0903 4.6549 26.039 5.30548L25.9123 6.91141C25.8725 7.41594 26.2159 7.87067 26.712 7.97045L28.2913 8.28804C28.9311 8.4167 29.2782 9.11379 28.9953 9.70189L28.297 11.1536C28.0777 11.6097 28.2336 12.1577 28.6602 12.43L30.0181 13.2967C30.5683 13.6478 30.6401 14.4232 30.1639 14.8694L28.9883 15.9708C28.619 16.3168 28.5664 16.8842 28.8659 17.2922L29.819 18.5909C30.2052 19.117 29.992 19.866 29.3868 20.11L27.8927 20.7124C27.4234 20.9017 27.1694 21.4117 27.3012 21.9004L27.7209 23.4557C27.8909 24.0857 27.4216 24.7072 26.769 24.7161L25.1583 24.7381C24.6522 24.745 24.2311 25.1289 24.1775 25.6321L24.007 27.234C23.9379 27.8829 23.2759 28.2929 22.6642 28.0655L21.1542 27.5041C20.6798 27.3277 20.1485 27.5336 19.9167 27.9835L19.1791 29.4156C18.8802 29.9957 18.1148 30.1388 17.6265 29.7058L16.4214 28.6369C16.0427 28.3011 15.4729 28.3011 15.0943 28.6369L13.8891 29.7058C13.4008 30.1388 12.6354 29.9957 12.3365 29.4156L11.5989 27.9835C11.3671 27.5336 10.8358 27.3277 10.3614 27.5041L8.85146 28.0655C8.23977 28.2929 7.57768 27.8829 7.5086 27.234L7.33808 25.6321C7.28451 25.1289 6.8634 24.745 6.35735 24.7381L4.74658 24.7161C4.09404 24.7072 3.62476 24.0857 3.79476 23.4557L4.21442 21.9004C4.34626 21.4117 4.09227 20.9017 3.62289 20.7124L2.12883 20.11C1.52357 19.866 1.31047 19.117 1.6966 18.5909L2.64976 17.2922C2.94921 16.8842 2.89663 16.3168 2.52731 15.9708L1.35175 14.8694C0.87552 14.4232 0.947372 13.6478 1.49748 13.2967L2.85541 12.43C3.28203 12.1577 3.43797 11.6097 3.21858 11.1536L2.52029 9.70189C2.2374 9.11379 2.58451 8.4167 3.2243 8.28804L4.8036 7.97045C5.29977 7.87067 5.64317 7.41594 5.60335 6.91141L5.47663 5.30548C5.42529 4.6549 6.00077 4.13028 6.64384 4.24143L8.23122 4.51579C8.72993 4.60198 9.21441 4.30201 9.35954 3.81717L9.8215 2.27391C10.0086 1.64871 10.7348 1.36741 11.2943 1.70335L12.6753 2.53261C13.1092 2.79314 13.6694 2.68844 13.9798 2.28876L14.9681 1.01659Z" fill="white"/>
<path d="M20.6814 15.066C20.772 15.1574 20.8228 15.2809 20.8228 15.4096C20.8228 15.5383 20.772 15.6617 20.6814 15.7532L16.3414 20.0932C16.2488 20.1817 16.1258 20.2313 15.9978 20.2319C15.9338 20.2316 15.8704 20.2193 15.8109 20.1957C15.7232 20.1588 15.6483 20.0968 15.5957 20.0174C15.5432 19.938 15.5153 19.8448 15.5156 19.7496V15.8918H11.1755C11.0476 15.8918 10.925 15.841 10.8345 15.7506C10.7441 15.6601 10.6933 15.5375 10.6933 15.4096C10.6933 15.2817 10.7441 15.159 10.8345 15.0686C10.925 14.9782 11.0476 14.9274 11.1755 14.9274H15.5156V11.0695C15.5153 10.9743 15.5432 10.8812 15.5957 10.8018C15.6483 10.7224 15.7232 10.6604 15.8109 10.6235C15.9 10.5887 15.9971 10.5799 16.091 10.5981C16.1848 10.6162 16.2717 10.6605 16.3414 10.726L20.6814 15.066Z" fill="black"/>
</svg>
