<svg width="181" height="49" viewBox="0 0 181 49" fill="none" xmlns="http://www.w3.org/2000/svg">
<path d="M134.729 32.3028L126.185 21.9528L117.641 32.3028H107.983L121.356 15.9626L108.355 0.061106H118.013L126.185 10.0974L134.358 0.061106H144.016L131.014 15.9626L144.387 32.3028H134.729ZM66.8026 7.58816H33.2125L11.448 24.8384L28.8294 24.7757V32.3028H0V24.7757L30.5668 0L66.8026 0.0613683V7.58843V7.58816ZM66.5575 12.4182V19.9455H40.7593V24.7757H66.7405V32.3028H33.3298V12.2975C44.5476 12.2975 55.2283 12.4184 66.5575 12.4184V12.4182ZM104.99 7.58816H71.5171V0.061106H104.99V7.58816ZM104.745 12.4182V19.9455H78.9467V24.7757H104.928V32.3028H71.5171V12.2975C82.735 12.2975 93.4155 12.4184 104.745 12.4184V12.4182ZM171.38 32.3025L154.557 11.6595L154.576 20.0129H156.935L163.008 27.5402H154.593L154.604 32.3023H147.19V0.0605815H154.619L181 32.3296L171.38 32.302V32.3025Z" fill="#030211"/>
<path d="M14.1624 7.58842H0.000365328V0.0613588H23.4176L14.1624 7.58842Z" fill="url(#paint0_linear_20_2)"/>
<path d="M0.662344 40.6817H5.72188V47.2517H5.09634V41.2154H1.28789V47.2517H0.662344V40.6817Z" fill="#030211"/>
<path d="M7.55561 40.6817H10.4717C10.7661 40.6817 11.0329 40.7247 11.2721 40.8105C11.5112 40.8903 11.7167 41.013 11.8884 41.1786C12.0601 41.3381 12.192 41.5344 12.284 41.7675C12.376 42.0006 12.422 42.2644 12.422 42.5588C12.422 42.8533 12.376 43.1171 12.284 43.3502C12.192 43.5833 12.0601 43.7827 11.8884 43.9483C11.7167 44.1078 11.5112 44.2305 11.2721 44.3164C11.0329 44.3961 10.7661 44.436 10.4717 44.436H8.18115V47.2517H7.55561V40.6817ZM10.3338 43.9023C10.7692 43.9023 11.1218 43.7919 11.3917 43.571C11.6615 43.3502 11.7964 43.0128 11.7964 42.5588C11.7964 42.1049 11.6615 41.7675 11.3917 41.5467C11.1218 41.3258 10.7692 41.2154 10.3338 41.2154H8.18115V43.9023H10.3338Z" fill="#030211"/>
<path d="M16.6065 47.3805C16.0914 47.3805 15.6375 47.2885 15.245 47.1045C14.8587 46.9143 14.5367 46.6628 14.2791 46.3499C14.0215 46.0371 13.8284 45.6751 13.6996 45.2641C13.5708 44.8531 13.5064 44.4206 13.5064 43.9667C13.5064 43.5189 13.5708 43.0895 13.6996 42.6785C13.8284 42.2613 14.0215 41.8963 14.2791 41.5835C14.5367 41.2645 14.8587 41.013 15.245 40.8289C15.6375 40.6388 16.0914 40.5437 16.6065 40.5437C17.1217 40.5437 17.5724 40.6388 17.9588 40.8289C18.3451 41.013 18.6671 41.2645 18.9247 41.5835C19.1823 41.8963 19.3755 42.2613 19.5042 42.6785C19.633 43.0895 19.6974 43.5189 19.6974 43.9667C19.6974 44.4206 19.633 44.8531 19.5042 45.2641C19.3755 45.6751 19.1823 46.0371 18.9247 46.3499C18.6671 46.6628 18.3451 46.9143 17.9588 47.1045C17.5724 47.2885 17.1217 47.3805 16.6065 47.3805ZM16.6065 46.856C17.0358 46.856 17.4068 46.7732 17.7196 46.6076C18.0324 46.4419 18.2869 46.2242 18.4831 45.9543C18.6855 45.6782 18.8327 45.3684 18.9247 45.0249C19.0228 44.6814 19.0719 44.3286 19.0719 43.9667C19.0719 43.6109 19.0228 43.2612 18.9247 42.9177C18.8327 42.568 18.6855 42.2583 18.4831 41.9883C18.2869 41.7123 18.0324 41.4915 17.7196 41.3258C17.4068 41.1602 17.0358 41.0774 16.6065 41.0774C16.1711 41.0774 15.797 41.1602 15.4842 41.3258C15.1714 41.4915 14.9139 41.7123 14.7115 41.9883C14.5152 42.2583 14.368 42.568 14.2699 42.9177C14.1779 43.2612 14.1319 43.6109 14.1319 43.9667C14.1319 44.3286 14.1779 44.6814 14.2699 45.0249C14.368 45.3684 14.5152 45.6782 14.7115 45.9543C14.9139 46.2242 15.1714 46.4419 15.4842 46.6076C15.797 46.7732 16.1711 46.856 16.6065 46.856Z" fill="#030211"/>
<path d="M20.5181 46.718H21.208C21.4411 46.2886 21.622 45.85 21.7508 45.4022C21.8796 44.9482 21.9746 44.4973 22.0359 44.0495C22.1034 43.6017 22.1433 43.1662 22.1555 42.7429C22.1739 42.3196 22.1831 41.9209 22.1831 41.5467V40.6817H26.2492V46.718H27.0311V49H26.4056V47.2517H21.1436V49H20.5181V46.718ZM25.6236 46.718V41.2154H22.8087V41.4362C22.8087 41.8043 22.8025 42.2061 22.7903 42.6417C22.7841 43.0711 22.7504 43.5158 22.6891 43.9759C22.6278 44.436 22.5327 44.8991 22.4039 45.3653C22.2813 45.8316 22.1034 46.2824 21.8704 46.718H25.6236Z" fill="#030211"/>
<path d="M28.2713 40.6817H31.0495C31.3254 40.6817 31.5892 40.7093 31.8406 40.7645C32.0982 40.8136 32.322 40.9025 32.5121 41.0314C32.7084 41.1541 32.8648 41.3197 32.9813 41.5283C33.0978 41.7307 33.1561 41.9853 33.1561 42.292C33.1561 42.4638 33.1285 42.6325 33.0733 42.7981C33.0181 42.9576 32.9384 43.1048 32.8341 43.2398C32.736 43.3686 32.6164 43.479 32.4753 43.571C32.3404 43.663 32.1871 43.7275 32.0154 43.7643V43.7827C32.4385 43.8379 32.7758 44.0127 33.0273 44.3072C33.2787 44.5955 33.4045 44.9543 33.4045 45.3838C33.4045 45.5432 33.3799 45.7303 33.3309 45.9451C33.2879 46.1536 33.1867 46.3561 33.0273 46.5524C32.8678 46.7487 32.6317 46.9143 32.319 47.0493C32.0062 47.1842 31.583 47.2517 31.0495 47.2517H28.2713V40.6817ZM31.0495 46.718C31.2825 46.718 31.5033 46.6996 31.7118 46.6628C31.9203 46.6198 32.1043 46.5462 32.2638 46.4419C32.4232 46.3377 32.5489 46.1996 32.6409 46.0279C32.7329 45.8561 32.7789 45.6353 32.7789 45.3653C32.7789 44.9421 32.6287 44.6261 32.3282 44.4176C32.0338 44.2029 31.6076 44.0955 31.0495 44.0955H28.8969V46.718H31.0495ZM31.0495 43.5618C31.2948 43.5618 31.5094 43.5342 31.6934 43.479C31.8835 43.4177 32.0399 43.3379 32.1626 43.2398C32.2852 43.1355 32.3772 43.0159 32.4385 42.8809C32.4999 42.7459 32.5305 42.6018 32.5305 42.4484C32.5305 41.6264 32.0368 41.2154 31.0495 41.2154H28.8969V43.5618H31.0495Z" fill="#030211"/>
<path d="M34.9131 40.6817H35.5386V46.58L39.3102 40.6817H40.1198V47.2517H39.4942V41.3534L35.7226 47.2517H34.9131V40.6817Z" fill="#030211"/>
<path d="M44.167 43.5158L41.4441 40.6817H42.2904L45.5285 44.1415V40.6817H46.1541V44.1415L49.3922 40.6817H50.2385L47.5155 43.5158L50.4685 47.2517H49.659L47.074 43.9759L46.1541 44.9329V47.2517H45.5285V44.9329L44.6086 43.9759L42.0236 47.2517H41.2141L44.167 43.5158Z" fill="#030211"/>
<path d="M51.5653 40.6817H56.1005V41.2154H52.1909V43.5894H55.8521V44.1231H52.1909V46.718H56.1465V47.2517H51.5653V40.6817Z" fill="#030211"/>
<path d="M57.5243 40.6817H58.1498V43.5342H62.0503V40.6817H62.6758V47.2517H62.0503V44.0679H58.1498V47.2517H57.5243V40.6817Z" fill="#030211"/>
<path d="M64.5074 40.6817H65.1329V46.58L68.9046 40.6817H69.7141V47.2517H69.0886V41.3534L65.3169 47.2517H64.5074V40.6817Z" fill="#030211"/>
<path d="M71.5444 40.6817H76.0796V41.2154H72.1699V43.5894H75.8312V44.1231H72.1699V46.718H76.1256V47.2517H71.5444V40.6817Z" fill="#030211"/>
<path d="M80.5696 40.6817H81.1952V43.5342H85.0956V40.6817H85.7212V47.2517H85.0956V44.0679H81.1952V47.2517H80.5696V40.6817Z" fill="#030211"/>
<path d="M89.4754 40.6817H90.1745L92.7503 47.2517H92.0787L91.2784 45.2089H88.2887L87.4975 47.2517H86.8352L89.4754 40.6817ZM91.0668 44.6752L89.7973 41.3074L88.4819 44.6752H91.0668Z" fill="#030211"/>
<path d="M96.901 40.6817H97.8209L100.093 46.4419L102.356 40.6817H103.276V47.2517H102.65V41.5743H102.632L100.387 47.2517H99.7987L97.5449 41.5743H97.5265V47.2517H96.901V40.6817Z" fill="#030211"/>
<path d="M107.011 40.6817H107.71L110.286 47.2517H109.614L108.814 45.2089H105.824L105.033 47.2517H104.371L107.011 40.6817ZM108.602 44.6752L107.333 41.3074L106.017 44.6752H108.602Z" fill="#030211"/>
<path d="M111.389 40.6817H114.305C114.599 40.6817 114.866 40.7247 115.105 40.8105C115.344 40.8903 115.55 41.013 115.721 41.1786C115.893 41.3381 116.025 41.5344 116.117 41.7675C116.209 42.0006 116.255 42.2644 116.255 42.5588C116.255 42.8533 116.209 43.1171 116.117 43.3502C116.025 43.5833 115.893 43.7827 115.721 43.9483C115.55 44.1078 115.344 44.2305 115.105 44.3164C114.866 44.3961 114.599 44.436 114.305 44.436H112.014V47.2517H111.389V40.6817ZM114.167 43.9023C114.602 43.9023 114.955 43.7919 115.225 43.571C115.495 43.3502 115.629 43.0128 115.629 42.5588C115.629 42.1049 115.495 41.7675 115.225 41.5467C114.955 41.3258 114.602 41.2154 114.167 41.2154H112.014V43.9023H114.167Z" fill="#030211"/>
<path d="M117.689 40.6817H118.315V44.2151L122.132 40.6817H122.979L120.044 43.3962L123.116 47.2517H122.307L119.575 43.8287L118.315 44.9973V47.2517H117.689V40.6817Z" fill="#030211"/>
<path d="M124.16 40.6817H128.695V41.2154H124.786V43.5894H128.447V44.1231H124.786V46.718H128.741V47.2517H124.16V40.6817Z" fill="#030211"/>
<path d="M131.701 41.2154H129.42V40.6817H134.617V41.2154H132.327V47.2517H131.701V41.2154Z" fill="#030211"/>
<path d="M135.737 40.6817H140.796V47.2517H140.171V41.2154H136.362V47.2517H135.737V40.6817Z" fill="#030211"/>
<path d="M142.464 47.3069C142.427 47.3069 142.381 47.3038 142.326 47.2977C142.277 47.2916 142.225 47.2854 142.17 47.2793C142.115 47.2732 142.066 47.264 142.023 47.2517C141.98 47.2455 141.949 47.2394 141.931 47.2333V46.6996C141.98 46.7241 142.053 46.7425 142.151 46.7548C142.256 46.7609 142.332 46.764 142.381 46.764C142.449 46.764 142.529 46.7579 142.621 46.7456C142.713 46.7272 142.808 46.672 142.906 46.58C143.01 46.4818 143.111 46.3315 143.209 46.1291C143.314 45.9205 143.403 45.6261 143.476 45.2457C143.556 44.8593 143.62 44.3716 143.669 43.7827C143.718 43.1938 143.743 42.4699 143.743 41.6111V40.6817H147.781V47.2517H147.156V41.2154H144.35V41.5743C144.35 42.5312 144.319 43.3379 144.258 43.9943C144.197 44.6446 144.114 45.1844 144.01 45.6138C143.905 46.0371 143.786 46.3653 143.651 46.5984C143.522 46.8253 143.387 46.991 143.246 47.0953C143.111 47.1995 142.973 47.2609 142.832 47.2793C142.697 47.2977 142.575 47.3069 142.464 47.3069Z" fill="#030211"/>
<path d="M149.613 40.6817H154.148V41.2154H150.238V43.5894H153.9V44.1231H150.238V46.718H154.194V47.2517H149.613V40.6817Z" fill="#030211"/>
<path d="M155.572 47.2517V40.6817H156.197V46.58L159.969 40.6817H160.779V47.2517H160.153V41.3534L156.381 47.2517H155.572ZM158.12 40.1388C157.734 40.1388 157.433 40.0376 157.219 39.8352C157.004 39.6266 156.872 39.3291 156.823 38.9426H157.182C157.212 39.1757 157.307 39.3597 157.467 39.4947C157.633 39.6297 157.853 39.6971 158.129 39.6971C158.393 39.6971 158.608 39.6327 158.773 39.5039C158.945 39.3689 159.055 39.1818 159.104 38.9426H159.463C159.396 39.3291 159.252 39.6266 159.031 39.8352C158.81 40.0376 158.506 40.1388 158.12 40.1388Z" fill="#030211"/>
<path d="M165.396 47.3805C164.881 47.3805 164.427 47.2885 164.035 47.1045C163.648 46.9143 163.326 46.6628 163.069 46.3499C162.811 46.0371 162.618 45.6751 162.489 45.2641C162.361 44.8531 162.296 44.4206 162.296 43.9667C162.296 43.5189 162.361 43.0895 162.489 42.6785C162.618 42.2613 162.811 41.8963 163.069 41.5835C163.326 41.2645 163.648 41.013 164.035 40.8289C164.427 40.6388 164.881 40.5437 165.396 40.5437C165.709 40.5437 166.013 40.5897 166.307 40.6817C166.607 40.7737 166.877 40.9117 167.117 41.0958C167.362 41.2737 167.564 41.4945 167.724 41.7583C167.889 42.0221 167.993 42.3257 168.036 42.6693H167.411C167.356 42.4178 167.264 42.1938 167.135 41.9975C167.012 41.7951 166.859 41.6264 166.675 41.4915C166.497 41.3565 166.298 41.2553 166.077 41.1878C165.862 41.1142 165.635 41.0774 165.396 41.0774C164.961 41.0774 164.587 41.1602 164.274 41.3258C163.961 41.4915 163.704 41.7123 163.501 41.9883C163.305 42.2583 163.158 42.568 163.06 42.9177C162.968 43.2612 162.922 43.6109 162.922 43.9667C162.922 44.3286 162.968 44.6814 163.06 45.0249C163.158 45.3684 163.305 45.6782 163.501 45.9543C163.704 46.2242 163.961 46.4419 164.274 46.6076C164.587 46.7732 164.961 46.856 165.396 46.856C165.697 46.856 165.97 46.8008 166.215 46.6904C166.466 46.58 166.681 46.4297 166.859 46.2395C167.037 46.0493 167.181 45.8285 167.291 45.577C167.402 45.3193 167.472 45.0433 167.503 44.7488H168.128C168.085 45.1537 167.99 45.5187 167.843 45.8438C167.696 46.169 167.506 46.445 167.273 46.672C167.04 46.899 166.764 47.0738 166.445 47.1965C166.132 47.3192 165.783 47.3805 165.396 47.3805Z" fill="#030211"/>
<path d="M171.515 40.6817H172.214L174.79 47.2517H174.118L173.318 45.2089H170.328L169.537 47.2517H168.874L171.515 40.6817ZM173.106 44.6752L171.837 41.3074L170.521 44.6752H173.106Z" fill="#030211"/>
<path d="M177.484 43.8655L175.258 40.6817H175.994L177.852 43.433L179.774 40.6817H180.474L178.229 43.8839L180.602 47.2517H179.848L177.852 44.3532L175.828 47.2517H175.129L177.484 43.8655Z" fill="#030211"/>
<defs>
<linearGradient id="paint0_linear_20_2" x1="90.5" y1="0" x2="90.5" y2="49" gradientUnits="userSpaceOnUse">
<stop stop-color="#FF839D"/>
<stop offset="0.161458" stop-color="#8AB6EB"/>
</linearGradient>
</defs>
</svg>
